<mxfile host="app.diagrams.net" modified="2023-12-26T06:32:46.190Z" agent="Mozilla/5.0 (Windows NT 10.0; Win64; x64) AppleWebKit/537.36 (KHTML, like Gecko) Chrome/118.0.0.0 YaBrowser/23.11.0.0 Safari/537.36" etag="HDWUUzFqxAwybpH0lBkZ" version="22.1.11" type="device">
  <diagram name="Страница — 1" id="7PjPg2DnXp7xFWjRFcZ5">
    <mxGraphModel dx="3085" dy="1990" grid="1" gridSize="10" guides="1" tooltips="1" connect="1" arrows="1" fold="1" page="1" pageScale="1" pageWidth="827" pageHeight="1169" math="0" shadow="0">
      <root>
        <mxCell id="0" />
        <mxCell id="1" parent="0" />
        <mxCell id="Pqs-TYic2R4L-rjVyj2_-17" value="Point" style="swimlane;fontStyle=0;childLayout=stackLayout;horizontal=1;startSize=26;fillColor=none;horizontalStack=0;resizeParent=1;resizeParentMax=0;resizeLast=0;collapsible=1;marginBottom=0;whiteSpace=wrap;html=1;" parent="1" vertex="1">
          <mxGeometry x="-590" y="800" width="140" height="78" as="geometry" />
        </mxCell>
        <mxCell id="Pqs-TYic2R4L-rjVyj2_-18" value="+ x: tint" style="text;strokeColor=none;fillColor=none;align=left;verticalAlign=top;spacingLeft=4;spacingRight=4;overflow=hidden;rotatable=0;points=[[0,0.5],[1,0.5]];portConstraint=eastwest;whiteSpace=wrap;html=1;" parent="Pqs-TYic2R4L-rjVyj2_-17" vertex="1">
          <mxGeometry y="26" width="140" height="26" as="geometry" />
        </mxCell>
        <mxCell id="Pqs-TYic2R4L-rjVyj2_-19" value="+ y: int" style="text;strokeColor=none;fillColor=none;align=left;verticalAlign=top;spacingLeft=4;spacingRight=4;overflow=hidden;rotatable=0;points=[[0,0.5],[1,0.5]];portConstraint=eastwest;whiteSpace=wrap;html=1;" parent="Pqs-TYic2R4L-rjVyj2_-17" vertex="1">
          <mxGeometry y="52" width="140" height="26" as="geometry" />
        </mxCell>
        <mxCell id="Pqs-TYic2R4L-rjVyj2_-21" value="Size" style="swimlane;fontStyle=0;childLayout=stackLayout;horizontal=1;startSize=26;fillColor=none;horizontalStack=0;resizeParent=1;resizeParentMax=0;resizeLast=0;collapsible=1;marginBottom=0;whiteSpace=wrap;html=1;" parent="1" vertex="1">
          <mxGeometry x="-830" y="860" width="140" height="78" as="geometry" />
        </mxCell>
        <mxCell id="Pqs-TYic2R4L-rjVyj2_-22" value="+ width: tint" style="text;strokeColor=none;fillColor=none;align=left;verticalAlign=top;spacingLeft=4;spacingRight=4;overflow=hidden;rotatable=0;points=[[0,0.5],[1,0.5]];portConstraint=eastwest;whiteSpace=wrap;html=1;" parent="Pqs-TYic2R4L-rjVyj2_-21" vertex="1">
          <mxGeometry y="26" width="140" height="26" as="geometry" />
        </mxCell>
        <mxCell id="Pqs-TYic2R4L-rjVyj2_-23" value="+ height: int" style="text;strokeColor=none;fillColor=none;align=left;verticalAlign=top;spacingLeft=4;spacingRight=4;overflow=hidden;rotatable=0;points=[[0,0.5],[1,0.5]];portConstraint=eastwest;whiteSpace=wrap;html=1;" parent="Pqs-TYic2R4L-rjVyj2_-21" vertex="1">
          <mxGeometry y="52" width="140" height="26" as="geometry" />
        </mxCell>
        <mxCell id="Pqs-TYic2R4L-rjVyj2_-24" value="Rect" style="swimlane;fontStyle=0;childLayout=stackLayout;horizontal=1;startSize=26;fillColor=none;horizontalStack=0;resizeParent=1;resizeParentMax=0;resizeLast=0;collapsible=1;marginBottom=0;whiteSpace=wrap;html=1;" parent="1" vertex="1">
          <mxGeometry x="-573" y="970" width="140" height="78" as="geometry" />
        </mxCell>
        <mxCell id="Pqs-TYic2R4L-rjVyj2_-25" value="+ leftTop: Point" style="text;strokeColor=none;fillColor=none;align=left;verticalAlign=top;spacingLeft=4;spacingRight=4;overflow=hidden;rotatable=0;points=[[0,0.5],[1,0.5]];portConstraint=eastwest;whiteSpace=wrap;html=1;" parent="Pqs-TYic2R4L-rjVyj2_-24" vertex="1">
          <mxGeometry y="26" width="140" height="26" as="geometry" />
        </mxCell>
        <mxCell id="Pqs-TYic2R4L-rjVyj2_-26" value="+ size: Size" style="text;strokeColor=none;fillColor=none;align=left;verticalAlign=top;spacingLeft=4;spacingRight=4;overflow=hidden;rotatable=0;points=[[0,0.5],[1,0.5]];portConstraint=eastwest;whiteSpace=wrap;html=1;" parent="Pqs-TYic2R4L-rjVyj2_-24" vertex="1">
          <mxGeometry y="52" width="140" height="26" as="geometry" />
        </mxCell>
        <mxCell id="Pqs-TYic2R4L-rjVyj2_-28" value="" style="endArrow=diamondThin;endFill=1;endSize=24;html=1;rounded=0;entryX=0.5;entryY=0;entryDx=0;entryDy=0;exitX=0.517;exitY=1.095;exitDx=0;exitDy=0;exitPerimeter=0;" parent="1" source="Pqs-TYic2R4L-rjVyj2_-19" target="Pqs-TYic2R4L-rjVyj2_-24" edge="1">
          <mxGeometry width="160" relative="1" as="geometry">
            <mxPoint x="-580" y="830" as="sourcePoint" />
            <mxPoint x="-420" y="830" as="targetPoint" />
          </mxGeometry>
        </mxCell>
        <mxCell id="Pqs-TYic2R4L-rjVyj2_-29" value="" style="endArrow=diamondThin;endFill=1;endSize=24;html=1;rounded=0;entryX=0.106;entryY=-0.014;entryDx=0;entryDy=0;exitX=0.991;exitY=0.896;exitDx=0;exitDy=0;exitPerimeter=0;entryPerimeter=0;" parent="1" source="Pqs-TYic2R4L-rjVyj2_-22" target="Pqs-TYic2R4L-rjVyj2_-24" edge="1">
          <mxGeometry width="160" relative="1" as="geometry">
            <mxPoint x="-640" y="900" as="sourcePoint" />
            <mxPoint x="-493" y="980" as="targetPoint" />
          </mxGeometry>
        </mxCell>
        <mxCell id="Pqs-TYic2R4L-rjVyj2_-32" value="&lt;p style=&quot;margin:0px;margin-top:4px;text-align:center;&quot;&gt;&lt;i&gt;&amp;lt;&amp;lt;Interface&amp;gt;&amp;gt;&lt;/i&gt;&lt;br&gt;&lt;b&gt;IPictureItem&amp;nbsp;&lt;/b&gt;&lt;br&gt;&lt;/p&gt;&lt;hr size=&quot;1&quot;&gt;&lt;p style=&quot;margin:0px;margin-left:4px;&quot;&gt;+&amp;nbsp;GetFrame() : Rect&lt;/p&gt;&lt;p style=&quot;margin:0px;margin-left:4px;&quot;&gt;+&amp;nbsp;void SetFrame(const Rect&amp;amp; frame)&lt;/p&gt;&lt;p style=&quot;margin:0px;margin-left:4px;&quot;&gt;+&amp;nbsp;GetId(): string&lt;/p&gt;&lt;p style=&quot;margin:0px;margin-left:4px;&quot;&gt;+&amp;nbsp;GetPosition(): Point&lt;/p&gt;&lt;p style=&quot;margin:0px;margin-left:4px;&quot;&gt;+&amp;nbsp;void SetPosition(Point leftTop)&lt;/p&gt;&lt;p style=&quot;margin:0px;margin-left:4px;&quot;&gt;using IPictureItemPtr = std::shared_ptr&amp;lt;IPictureItem&amp;gt;;&lt;br&gt;&lt;/p&gt;&lt;p style=&quot;margin:0px;margin-left:4px;&quot;&gt;&lt;br&gt;&lt;/p&gt;" style="verticalAlign=top;align=left;overflow=fill;fontSize=12;fontFamily=Helvetica;html=1;whiteSpace=wrap;" parent="1" vertex="1">
          <mxGeometry x="-650" y="1150" width="300" height="140" as="geometry" />
        </mxCell>
        <mxCell id="Pqs-TYic2R4L-rjVyj2_-33" value="Use" style="endArrow=open;endSize=12;dashed=1;html=1;rounded=0;exitX=0.39;exitY=-0.006;exitDx=0;exitDy=0;exitPerimeter=0;" parent="1" source="Pqs-TYic2R4L-rjVyj2_-32" target="Pqs-TYic2R4L-rjVyj2_-26" edge="1">
          <mxGeometry width="160" relative="1" as="geometry">
            <mxPoint x="-670" y="1210" as="sourcePoint" />
            <mxPoint x="-510" y="1210" as="targetPoint" />
          </mxGeometry>
        </mxCell>
        <mxCell id="Pqs-TYic2R4L-rjVyj2_-38" value="Use" style="endArrow=open;endSize=12;dashed=1;html=1;rounded=0;exitX=0.372;exitY=0.022;exitDx=0;exitDy=0;exitPerimeter=0;" parent="1" source="Pqs-TYic2R4L-rjVyj2_-36" target="Pqs-TYic2R4L-rjVyj2_-35" edge="1">
          <mxGeometry width="160" relative="1" as="geometry">
            <mxPoint x="-523" y="1159" as="sourcePoint" />
            <mxPoint x="-496" y="1058" as="targetPoint" />
          </mxGeometry>
        </mxCell>
        <mxCell id="Pqs-TYic2R4L-rjVyj2_-34" value="Use" style="endArrow=open;endSize=12;dashed=1;html=1;rounded=0;exitX=0.628;exitY=-0.019;exitDx=0;exitDy=0;exitPerimeter=0;entryX=1;entryY=0.5;entryDx=0;entryDy=0;edgeStyle=orthogonalEdgeStyle;" parent="1" source="Pqs-TYic2R4L-rjVyj2_-32" target="Pqs-TYic2R4L-rjVyj2_-19" edge="1">
          <mxGeometry width="160" relative="1" as="geometry">
            <mxPoint x="-523" y="1159" as="sourcePoint" />
            <mxPoint x="-496" y="1058" as="targetPoint" />
            <Array as="points">
              <mxPoint x="-462" y="1060" />
              <mxPoint x="-420" y="1060" />
              <mxPoint x="-420" y="879" />
              <mxPoint x="-450" y="879" />
            </Array>
          </mxGeometry>
        </mxCell>
        <mxCell id="Pqs-TYic2R4L-rjVyj2_-35" value="&lt;p style=&quot;margin:0px;margin-top:4px;text-align:center;&quot;&gt;&lt;i&gt;&amp;lt;&amp;lt;Interface&amp;gt;&amp;gt;&lt;/i&gt;&lt;br&gt;&lt;b&gt;IObserver&lt;/b&gt;&lt;br&gt;&lt;/p&gt;&lt;hr size=&quot;1&quot;&gt;&lt;p style=&quot;margin:0px;margin-left:4px;&quot;&gt;+ Update(T const&amp;amp; data)&lt;br&gt;&lt;/p&gt;" style="verticalAlign=top;align=left;overflow=fill;fontSize=12;fontFamily=Helvetica;html=1;whiteSpace=wrap;" parent="1" vertex="1">
          <mxGeometry x="-260" y="878" width="190" height="72" as="geometry" />
        </mxCell>
        <mxCell id="Pqs-TYic2R4L-rjVyj2_-36" value="&lt;p style=&quot;margin:0px;margin-top:4px;text-align:center;&quot;&gt;&lt;i&gt;&amp;lt;&amp;lt;Interface&amp;gt;&amp;gt;&lt;/i&gt;&lt;br&gt;&lt;b&gt;IObservable&lt;/b&gt;&lt;br&gt;&lt;/p&gt;&lt;hr size=&quot;1&quot;&gt;&lt;p style=&quot;margin:0px;margin-left:4px;&quot;&gt;+&amp;nbsp;RegisterObserver(IObserver&amp;lt;T&amp;gt;&amp;amp; observer)&lt;/p&gt;&lt;p style=&quot;margin:0px;margin-left:4px;&quot;&gt;+ NotifyObservers()&lt;/p&gt;&lt;p style=&quot;margin:0px;margin-left:4px;&quot;&gt;+&amp;nbsp;&amp;nbsp;RemoveObserver(IObserver&amp;lt;T&amp;gt;&amp;amp; observer)&lt;/p&gt;" style="verticalAlign=top;align=left;overflow=fill;fontSize=12;fontFamily=Helvetica;html=1;whiteSpace=wrap;" parent="1" vertex="1">
          <mxGeometry x="-180" y="1000" width="250" height="110" as="geometry" />
        </mxCell>
        <mxCell id="Pqs-TYic2R4L-rjVyj2_-39" value="&lt;p style=&quot;margin:0px;margin-top:4px;text-align:center;&quot;&gt;&lt;/p&gt;&lt;div style=&quot;text-align: center;&quot;&gt;&lt;b&gt;CObservable&amp;nbsp;&lt;/b&gt;&lt;/div&gt;&lt;hr size=&quot;1&quot;&gt;&lt;p style=&quot;border-color: var(--border-color); margin: 0px 0px 0px 4px;&quot;&gt;+&amp;nbsp;RegisterObserver(IObserver&amp;lt;T&amp;gt;&amp;amp; observer)&lt;/p&gt;&lt;p style=&quot;border-color: var(--border-color); margin: 0px 0px 0px 4px;&quot;&gt;+ NotifyObservers()&lt;/p&gt;&lt;p style=&quot;border-color: var(--border-color); margin: 0px 0px 0px 4px;&quot;&gt;+&amp;nbsp;&amp;nbsp;RemoveObserver(IObserver&amp;lt;T&amp;gt;&amp;amp; observer)&lt;/p&gt;&lt;p style=&quot;border-color: var(--border-color); margin: 0px 0px 0px 4px;&quot;&gt;#GetChangedData(): T&lt;/p&gt;&lt;p style=&quot;border-color: var(--border-color); margin: 0px 0px 0px 4px;&quot;&gt;- m_observer:&amp;nbsp;set&amp;lt;IObserver&amp;lt;T&amp;gt;*&amp;gt;&lt;/p&gt;&lt;p style=&quot;border-color: var(--border-color); margin: 0px 0px 0px 4px;&quot;&gt;&lt;br&gt;&lt;/p&gt;" style="verticalAlign=top;align=left;overflow=fill;fontSize=12;fontFamily=Helvetica;html=1;whiteSpace=wrap;" parent="1" vertex="1">
          <mxGeometry x="-180" y="1176" width="270" height="104" as="geometry" />
        </mxCell>
        <mxCell id="Pqs-TYic2R4L-rjVyj2_-40" value="" style="endArrow=block;dashed=1;endFill=0;endSize=12;html=1;rounded=0;exitX=0.5;exitY=0;exitDx=0;exitDy=0;entryX=0.5;entryY=1;entryDx=0;entryDy=0;" parent="1" source="Pqs-TYic2R4L-rjVyj2_-39" target="Pqs-TYic2R4L-rjVyj2_-36" edge="1">
          <mxGeometry width="160" relative="1" as="geometry">
            <mxPoint x="-250" y="1040" as="sourcePoint" />
            <mxPoint x="-90" y="1040" as="targetPoint" />
          </mxGeometry>
        </mxCell>
        <mxCell id="Pqs-TYic2R4L-rjVyj2_-45" value="" style="endArrow=block;dashed=1;endFill=0;endSize=12;html=1;rounded=0;exitX=0.5;exitY=0;exitDx=0;exitDy=0;" parent="1" source="Pqs-TYic2R4L-rjVyj2_-43" target="Pqs-TYic2R4L-rjVyj2_-32" edge="1">
          <mxGeometry width="160" relative="1" as="geometry">
            <mxPoint x="-35" y="1186" as="sourcePoint" />
            <mxPoint x="-45" y="1120" as="targetPoint" />
          </mxGeometry>
        </mxCell>
        <mxCell id="Pqs-TYic2R4L-rjVyj2_-51" value="" style="endArrow=block;dashed=1;endFill=0;endSize=12;html=1;rounded=0;exitX=0.5;exitY=0;exitDx=0;exitDy=0;entryX=0.5;entryY=1;entryDx=0;entryDy=0;" parent="1" source="Pqs-TYic2R4L-rjVyj2_-49" target="Pqs-TYic2R4L-rjVyj2_-43" edge="1">
          <mxGeometry width="160" relative="1" as="geometry">
            <mxPoint x="-645" y="1390" as="sourcePoint" />
            <mxPoint x="-558" y="1300" as="targetPoint" />
          </mxGeometry>
        </mxCell>
        <mxCell id="Pqs-TYic2R4L-rjVyj2_-53" value="" style="endArrow=block;dashed=1;endFill=0;endSize=12;html=1;rounded=0;exitX=0.39;exitY=-0.005;exitDx=0;exitDy=0;exitPerimeter=0;" parent="1" source="Pqs-TYic2R4L-rjVyj2_-52" target="Pqs-TYic2R4L-rjVyj2_-46" edge="1">
          <mxGeometry width="160" relative="1" as="geometry">
            <mxPoint x="-642" y="1584" as="sourcePoint" />
            <mxPoint x="-645" y="1470" as="targetPoint" />
          </mxGeometry>
        </mxCell>
        <mxCell id="Pqs-TYic2R4L-rjVyj2_-72" value="" style="endArrow=block;dashed=1;endFill=0;endSize=12;html=1;rounded=0;exitX=0.159;exitY=-0.015;exitDx=0;exitDy=0;exitPerimeter=0;entryX=0;entryY=0.75;entryDx=0;entryDy=0;edgeStyle=orthogonalEdgeStyle;" parent="1" source="Pqs-TYic2R4L-rjVyj2_-71" target="Pqs-TYic2R4L-rjVyj2_-46" edge="1">
          <mxGeometry width="160" relative="1" as="geometry">
            <mxPoint x="-470.005" y="1769.6900000000003" as="sourcePoint" />
            <mxPoint x="-505.1" y="1440.28" as="targetPoint" />
            <Array as="points">
              <mxPoint x="-455" y="1770" />
              <mxPoint x="-515" y="1770" />
              <mxPoint x="-515" y="1618" />
              <mxPoint x="-525" y="1618" />
              <mxPoint x="-525" y="1443" />
              <mxPoint x="-505" y="1443" />
              <mxPoint x="-505" y="1448" />
            </Array>
          </mxGeometry>
        </mxCell>
        <mxCell id="Pqs-TYic2R4L-rjVyj2_-41" value="Extends" style="endArrow=block;endSize=16;endFill=0;html=1;rounded=0;exitX=1;exitY=0.5;exitDx=0;exitDy=0;entryX=-0.011;entryY=0.412;entryDx=0;entryDy=0;entryPerimeter=0;" parent="1" source="Pqs-TYic2R4L-rjVyj2_-32" target="Pqs-TYic2R4L-rjVyj2_-39" edge="1">
          <mxGeometry width="160" relative="1" as="geometry">
            <mxPoint x="-280" y="1200" as="sourcePoint" />
            <mxPoint x="-120" y="1200" as="targetPoint" />
          </mxGeometry>
        </mxCell>
        <mxCell id="Pqs-TYic2R4L-rjVyj2_-43" value="&lt;p style=&quot;margin:0px;margin-top:4px;text-align:center;&quot;&gt;&lt;i&gt;&amp;lt;&amp;lt;Interface&amp;gt;&amp;gt;&lt;/i&gt;&lt;br&gt;&lt;b&gt;IShape:&amp;nbsp;&lt;/b&gt;&lt;/p&gt;&lt;hr size=&quot;1&quot;&gt;&lt;p style=&quot;margin:0px;margin-left:4px;&quot;&gt;+ GetType(): ShapeTypes&amp;nbsp;&lt;br&gt;&lt;/p&gt;&lt;p style=&quot;margin:0px;margin-left:4px;&quot;&gt;using IShapePtr = std::shared_ptr&amp;lt;IShape&amp;gt;;&lt;br&gt;&lt;/p&gt;" style="verticalAlign=top;align=left;overflow=fill;fontSize=12;fontFamily=Helvetica;html=1;whiteSpace=wrap;" parent="1" vertex="1">
          <mxGeometry x="-750" y="1380" width="210" height="90" as="geometry" />
        </mxCell>
        <mxCell id="Pqs-TYic2R4L-rjVyj2_-73" style="edgeStyle=orthogonalEdgeStyle;rounded=0;orthogonalLoop=1;jettySize=auto;html=1;" parent="1" source="Pqs-TYic2R4L-rjVyj2_-46" edge="1">
          <mxGeometry relative="1" as="geometry">
            <mxPoint x="-370" y="1480" as="targetPoint" />
          </mxGeometry>
        </mxCell>
        <mxCell id="Pqs-TYic2R4L-rjVyj2_-46" value="&lt;p style=&quot;margin:0px;margin-top:4px;text-align:center;&quot;&gt;&lt;i&gt;&amp;lt;&amp;lt;Interface&amp;gt;&amp;gt;&lt;/i&gt;&lt;br&gt;&lt;/p&gt;&lt;div style=&quot;text-align: center;&quot;&gt;&lt;b&gt;IImage&amp;nbsp;&lt;/b&gt;&lt;/div&gt;&lt;hr size=&quot;1&quot;&gt;&lt;p style=&quot;margin:0px;margin-left:4px;&quot;&gt;+ GetPath(): filesystem::path&lt;br&gt;&lt;/p&gt;&lt;p style=&quot;margin:0px;margin-left:4px;&quot;&gt;using IImagePtr = std::shared_ptr&amp;lt;IImage&amp;gt;;&lt;br&gt;&lt;/p&gt;" style="verticalAlign=top;align=left;overflow=fill;fontSize=12;fontFamily=Helvetica;html=1;whiteSpace=wrap;" parent="1" vertex="1">
          <mxGeometry x="-490" y="1380" width="210" height="90" as="geometry" />
        </mxCell>
        <mxCell id="Pqs-TYic2R4L-rjVyj2_-48" value="" style="endArrow=block;dashed=1;endFill=0;endSize=12;html=1;rounded=0;entryX=0.653;entryY=1.016;entryDx=0;entryDy=0;entryPerimeter=0;exitX=0.5;exitY=0;exitDx=0;exitDy=0;" parent="1" source="Pqs-TYic2R4L-rjVyj2_-46" target="Pqs-TYic2R4L-rjVyj2_-32" edge="1">
          <mxGeometry width="160" relative="1" as="geometry">
            <mxPoint x="-520" y="1500" as="sourcePoint" />
            <mxPoint x="-360" y="1500" as="targetPoint" />
          </mxGeometry>
        </mxCell>
        <mxCell id="Pqs-TYic2R4L-rjVyj2_-49" value="&lt;p style=&quot;margin:0px;margin-top:4px;text-align:center;&quot;&gt;&lt;b&gt;CShape&lt;/b&gt;&lt;br&gt;&lt;/p&gt;&lt;hr size=&quot;1&quot;&gt;&lt;p style=&quot;margin:0px;margin-left:4px;&quot;&gt;- m_type: ShapesTypes&lt;/p&gt;&lt;p style=&quot;margin:0px;margin-left:4px;&quot;&gt;- m_id: string&lt;/p&gt;&lt;p style=&quot;margin:0px;margin-left:4px;&quot;&gt;- m_frame: Rect&lt;/p&gt;&lt;hr size=&quot;1&quot;&gt;&lt;p style=&quot;border-color: var(--border-color); margin: 0px 0px 0px 4px;&quot;&gt;+&amp;nbsp;GetFrame() : Rect&lt;/p&gt;&lt;p style=&quot;border-color: var(--border-color); margin: 0px 0px 0px 4px;&quot;&gt;+&amp;nbsp;void SetFrame(const Rect&amp;amp; frame)&lt;/p&gt;&lt;p style=&quot;border-color: var(--border-color); margin: 0px 0px 0px 4px;&quot;&gt;+&amp;nbsp;GetId(): string&lt;/p&gt;&lt;p style=&quot;border-color: var(--border-color); margin: 0px 0px 0px 4px;&quot;&gt;+&amp;nbsp;GetPosition(): Point&lt;/p&gt;&lt;p style=&quot;border-color: var(--border-color); margin: 0px 0px 0px 4px;&quot;&gt;+&amp;nbsp;void SetPosition(Point leftTop)&lt;/p&gt;&lt;p style=&quot;border-color: var(--border-color); margin: 0px 0px 0px 4px;&quot;&gt;+ GetType(): ShapeTypes&amp;nbsp;&lt;br&gt;&lt;/p&gt;&lt;p style=&quot;border-color: var(--border-color); margin: 0px 0px 0px 4px;&quot;&gt;#GetChangedData(): Rect&lt;br&gt;&lt;/p&gt;" style="verticalAlign=top;align=left;overflow=fill;fontSize=12;fontFamily=Helvetica;html=1;whiteSpace=wrap;" parent="1" vertex="1">
          <mxGeometry x="-755" y="1574" width="205" height="206" as="geometry" />
        </mxCell>
        <mxCell id="Pqs-TYic2R4L-rjVyj2_-52" value="&lt;p style=&quot;margin:0px;margin-top:4px;text-align:center;&quot;&gt;&lt;b&gt;CImage&lt;/b&gt;&lt;br&gt;&lt;/p&gt;&lt;hr size=&quot;1&quot;&gt;&lt;p style=&quot;margin:0px;margin-left:4px;&quot;&gt;- m_path:&amp;nbsp;fylesystem::path&lt;/p&gt;&lt;p style=&quot;margin:0px;margin-left:4px;&quot;&gt;- m_id: string&lt;/p&gt;&lt;p style=&quot;margin:0px;margin-left:4px;&quot;&gt;- m_frame: Rect&lt;/p&gt;&lt;hr size=&quot;1&quot;&gt;&lt;p style=&quot;border-color: var(--border-color); margin: 0px 0px 0px 4px;&quot;&gt;+&amp;nbsp;GetFrame() : Rect&lt;/p&gt;&lt;p style=&quot;border-color: var(--border-color); margin: 0px 0px 0px 4px;&quot;&gt;+&amp;nbsp;void SetFrame(const Rect&amp;amp; frame)&lt;/p&gt;&lt;p style=&quot;border-color: var(--border-color); margin: 0px 0px 0px 4px;&quot;&gt;+&amp;nbsp;GetId(): string&lt;/p&gt;&lt;p style=&quot;border-color: var(--border-color); margin: 0px 0px 0px 4px;&quot;&gt;+&amp;nbsp;GetPosition(): Point&lt;/p&gt;&lt;p style=&quot;border-color: var(--border-color); margin: 0px 0px 0px 4px;&quot;&gt;+&amp;nbsp;void SetPosition(Point leftTop)&lt;/p&gt;&lt;p style=&quot;border-color: var(--border-color); margin: 0px 0px 0px 4px;&quot;&gt;+ GetPath(): filesystem::path&lt;br&gt;&lt;/p&gt;&lt;p style=&quot;border-color: var(--border-color); margin: 0px 0px 0px 4px;&quot;&gt;#GetChangedData(): Rect&lt;br&gt;&lt;/p&gt;" style="verticalAlign=top;align=left;overflow=fill;fontSize=12;fontFamily=Helvetica;html=1;whiteSpace=wrap;" parent="1" vertex="1">
          <mxGeometry x="-470" y="1520" width="205" height="206" as="geometry" />
        </mxCell>
        <mxCell id="Pqs-TYic2R4L-rjVyj2_-50" value="" style="endArrow=diamondThin;endFill=1;endSize=24;html=1;rounded=0;entryX=0;entryY=0.25;entryDx=0;entryDy=0;exitX=0;exitY=0.5;exitDx=0;exitDy=0;edgeStyle=orthogonalEdgeStyle;" parent="1" source="Pqs-TYic2R4L-rjVyj2_-26" target="Pqs-TYic2R4L-rjVyj2_-49" edge="1">
          <mxGeometry width="160" relative="1" as="geometry">
            <mxPoint x="-510" y="1370" as="sourcePoint" />
            <mxPoint x="-350" y="1370" as="targetPoint" />
            <Array as="points">
              <mxPoint x="-790" y="1035" />
              <mxPoint x="-790" y="1575" />
              <mxPoint x="-755" y="1575" />
            </Array>
          </mxGeometry>
        </mxCell>
        <mxCell id="Pqs-TYic2R4L-rjVyj2_-54" value="" style="endArrow=diamondThin;endFill=1;endSize=24;html=1;rounded=0;entryX=0;entryY=0.25;entryDx=0;entryDy=0;exitX=0;exitY=0.5;exitDx=0;exitDy=0;edgeStyle=orthogonalEdgeStyle;" parent="1" source="Pqs-TYic2R4L-rjVyj2_-25" target="Pqs-TYic2R4L-rjVyj2_-52" edge="1">
          <mxGeometry width="160" relative="1" as="geometry">
            <mxPoint x="-563" y="1045" as="sourcePoint" />
            <mxPoint x="-745" y="1636" as="targetPoint" />
            <Array as="points">
              <mxPoint x="-573" y="1045" />
              <mxPoint x="-780" y="1045" />
              <mxPoint x="-780" y="1500" />
              <mxPoint x="-730" y="1500" />
              <mxPoint x="-730" y="1510" />
              <mxPoint x="-510" y="1510" />
              <mxPoint x="-510" y="1572" />
            </Array>
          </mxGeometry>
        </mxCell>
        <mxCell id="Pqs-TYic2R4L-rjVyj2_-55" value="CHistory" style="swimlane;fontStyle=0;childLayout=stackLayout;horizontal=1;startSize=26;fillColor=none;horizontalStack=0;resizeParent=1;resizeParentMax=0;resizeLast=0;collapsible=1;marginBottom=0;whiteSpace=wrap;html=1;" parent="1" vertex="1">
          <mxGeometry x="-110" y="1960" width="260" height="310" as="geometry" />
        </mxCell>
        <mxCell id="Pqs-TYic2R4L-rjVyj2_-56" value="+&amp;nbsp;CanUndo() : bool" style="text;strokeColor=none;fillColor=none;align=left;verticalAlign=top;spacingLeft=4;spacingRight=4;overflow=hidden;rotatable=0;points=[[0,0.5],[1,0.5]];portConstraint=eastwest;whiteSpace=wrap;html=1;" parent="Pqs-TYic2R4L-rjVyj2_-55" vertex="1">
          <mxGeometry y="26" width="260" height="26" as="geometry" />
        </mxCell>
        <mxCell id="Pqs-TYic2R4L-rjVyj2_-57" value="+ CanRedo() : bool" style="text;strokeColor=none;fillColor=none;align=left;verticalAlign=top;spacingLeft=4;spacingRight=4;overflow=hidden;rotatable=0;points=[[0,0.5],[1,0.5]];portConstraint=eastwest;whiteSpace=wrap;html=1;" parent="Pqs-TYic2R4L-rjVyj2_-55" vertex="1">
          <mxGeometry y="52" width="260" height="26" as="geometry" />
        </mxCell>
        <mxCell id="Pqs-TYic2R4L-rjVyj2_-58" value="+&amp;nbsp;Undo()" style="text;strokeColor=none;fillColor=none;align=left;verticalAlign=top;spacingLeft=4;spacingRight=4;overflow=hidden;rotatable=0;points=[[0,0.5],[1,0.5]];portConstraint=eastwest;whiteSpace=wrap;html=1;" parent="Pqs-TYic2R4L-rjVyj2_-55" vertex="1">
          <mxGeometry y="78" width="260" height="26" as="geometry" />
        </mxCell>
        <mxCell id="Pqs-TYic2R4L-rjVyj2_-59" value="+ Redo()" style="text;strokeColor=none;fillColor=none;align=left;verticalAlign=top;spacingLeft=4;spacingRight=4;overflow=hidden;rotatable=0;points=[[0,0.5],[1,0.5]];portConstraint=eastwest;whiteSpace=wrap;html=1;" parent="Pqs-TYic2R4L-rjVyj2_-55" vertex="1">
          <mxGeometry y="104" width="260" height="26" as="geometry" />
        </mxCell>
        <mxCell id="Pqs-TYic2R4L-rjVyj2_-60" value="+AddAndExecuteCommand(ICommandPtr&amp;amp;&amp;amp; command)" style="text;strokeColor=none;fillColor=none;align=left;verticalAlign=top;spacingLeft=4;spacingRight=4;overflow=hidden;rotatable=0;points=[[0,0.5],[1,0.5]];portConstraint=eastwest;whiteSpace=wrap;html=1;" parent="Pqs-TYic2R4L-rjVyj2_-55" vertex="1">
          <mxGeometry y="130" width="260" height="60" as="geometry" />
        </mxCell>
        <mxCell id="Pqs-TYic2R4L-rjVyj2_-61" value="+AddAndExecuteCommand(ICommandPtr&amp;amp;&amp;amp; command)" style="text;strokeColor=none;fillColor=none;align=left;verticalAlign=top;spacingLeft=4;spacingRight=4;overflow=hidden;rotatable=0;points=[[0,0.5],[1,0.5]];portConstraint=eastwest;whiteSpace=wrap;html=1;" parent="Pqs-TYic2R4L-rjVyj2_-55" vertex="1">
          <mxGeometry y="190" width="260" height="60" as="geometry" />
        </mxCell>
        <mxCell id="Pqs-TYic2R4L-rjVyj2_-62" value="-&amp;nbsp; m_commands : std::vector&amp;lt;ICommandPtr&amp;gt;" style="text;strokeColor=none;fillColor=none;align=left;verticalAlign=top;spacingLeft=4;spacingRight=4;overflow=hidden;rotatable=0;points=[[0,0.5],[1,0.5]];portConstraint=eastwest;whiteSpace=wrap;html=1;" parent="Pqs-TYic2R4L-rjVyj2_-55" vertex="1">
          <mxGeometry y="250" width="260" height="30" as="geometry" />
        </mxCell>
        <mxCell id="Pqs-TYic2R4L-rjVyj2_-63" value="- m_currentCommandIdx: size_t" style="text;strokeColor=none;fillColor=none;align=left;verticalAlign=top;spacingLeft=4;spacingRight=4;overflow=hidden;rotatable=0;points=[[0,0.5],[1,0.5]];portConstraint=eastwest;whiteSpace=wrap;html=1;" parent="Pqs-TYic2R4L-rjVyj2_-55" vertex="1">
          <mxGeometry y="280" width="260" height="30" as="geometry" />
        </mxCell>
        <mxCell id="Pqs-TYic2R4L-rjVyj2_-64" value="&lt;p style=&quot;margin:0px;margin-top:4px;text-align:center;&quot;&gt;&lt;i&gt;&amp;lt;&amp;lt;Interface&amp;gt;&amp;gt;&lt;/i&gt;&lt;br&gt;&lt;b&gt;ICommand&lt;/b&gt;&lt;/p&gt;&lt;hr size=&quot;1&quot;&gt;&lt;p style=&quot;margin:0px;margin-left:4px;&quot;&gt;+ Execute()&lt;br&gt;+ UnExecute()&lt;/p&gt;" style="verticalAlign=top;align=left;overflow=fill;fontSize=12;fontFamily=Helvetica;html=1;whiteSpace=wrap;" parent="1" vertex="1">
          <mxGeometry x="-472.5" y="2230" width="190" height="90" as="geometry" />
        </mxCell>
        <mxCell id="Pqs-TYic2R4L-rjVyj2_-65" value="AbstractCommand" style="swimlane;fontStyle=0;childLayout=stackLayout;horizontal=1;startSize=26;fillColor=none;horizontalStack=0;resizeParent=1;resizeParentMax=0;resizeLast=0;collapsible=1;marginBottom=0;whiteSpace=wrap;html=1;" parent="1" vertex="1">
          <mxGeometry x="-190" y="2370" width="140" height="156" as="geometry" />
        </mxCell>
        <mxCell id="Pqs-TYic2R4L-rjVyj2_-66" value="+ Execute()" style="text;strokeColor=none;fillColor=none;align=left;verticalAlign=top;spacingLeft=4;spacingRight=4;overflow=hidden;rotatable=0;points=[[0,0.5],[1,0.5]];portConstraint=eastwest;whiteSpace=wrap;html=1;" parent="Pqs-TYic2R4L-rjVyj2_-65" vertex="1">
          <mxGeometry y="26" width="140" height="26" as="geometry" />
        </mxCell>
        <mxCell id="Pqs-TYic2R4L-rjVyj2_-67" value="+ UnExecute()" style="text;strokeColor=none;fillColor=none;align=left;verticalAlign=top;spacingLeft=4;spacingRight=4;overflow=hidden;rotatable=0;points=[[0,0.5],[1,0.5]];portConstraint=eastwest;whiteSpace=wrap;html=1;" parent="Pqs-TYic2R4L-rjVyj2_-65" vertex="1">
          <mxGeometry y="52" width="140" height="26" as="geometry" />
        </mxCell>
        <mxCell id="Pqs-TYic2R4L-rjVyj2_-68" value="# DoExecuted()" style="text;strokeColor=none;fillColor=none;align=left;verticalAlign=top;spacingLeft=4;spacingRight=4;overflow=hidden;rotatable=0;points=[[0,0.5],[1,0.5]];portConstraint=eastwest;whiteSpace=wrap;html=1;" parent="Pqs-TYic2R4L-rjVyj2_-65" vertex="1">
          <mxGeometry y="78" width="140" height="26" as="geometry" />
        </mxCell>
        <mxCell id="Pqs-TYic2R4L-rjVyj2_-69" value="#&amp;nbsp;DoUnExecute()" style="text;strokeColor=none;fillColor=none;align=left;verticalAlign=top;spacingLeft=4;spacingRight=4;overflow=hidden;rotatable=0;points=[[0,0.5],[1,0.5]];portConstraint=eastwest;whiteSpace=wrap;html=1;" parent="Pqs-TYic2R4L-rjVyj2_-65" vertex="1">
          <mxGeometry y="104" width="140" height="26" as="geometry" />
        </mxCell>
        <mxCell id="Pqs-TYic2R4L-rjVyj2_-70" value="-&amp;nbsp;m_executed: bool" style="text;strokeColor=none;fillColor=none;align=left;verticalAlign=top;spacingLeft=4;spacingRight=4;overflow=hidden;rotatable=0;points=[[0,0.5],[1,0.5]];portConstraint=eastwest;whiteSpace=wrap;html=1;" parent="Pqs-TYic2R4L-rjVyj2_-65" vertex="1">
          <mxGeometry y="130" width="140" height="26" as="geometry" />
        </mxCell>
        <mxCell id="Pqs-TYic2R4L-rjVyj2_-71" value="&lt;p style=&quot;margin:0px;margin-top:4px;text-align:center;&quot;&gt;&lt;b&gt;CImageAndHistory&lt;/b&gt;&lt;br&gt;&lt;/p&gt;&lt;hr size=&quot;1&quot;&gt;&lt;p style=&quot;margin:0px;margin-left:4px;&quot;&gt;&lt;span style=&quot;background-color: initial;&quot;&gt;- m_frame: Rect&lt;/span&gt;&lt;br&gt;&lt;/p&gt;&lt;p style=&quot;margin:0px;margin-left:4px;&quot;&gt;&lt;span style=&quot;background-color: initial;&quot;&gt;-m_img: IImagePtr&amp;nbsp;&lt;br&gt;&lt;/span&gt;&lt;/p&gt;&lt;p style=&quot;margin:0px;margin-left:4px;&quot;&gt;&lt;span style=&quot;background-color: initial;&quot;&gt;-m_history: CHistory&amp;amp;&lt;/span&gt;&lt;/p&gt;&lt;hr size=&quot;1&quot;&gt;&lt;p style=&quot;border-color: var(--border-color); margin: 0px 0px 0px 4px;&quot;&gt;+&amp;nbsp;GetFrame() : Rect&lt;/p&gt;&lt;p style=&quot;border-color: var(--border-color); margin: 0px 0px 0px 4px;&quot;&gt;+&amp;nbsp;void SetFrame(const Rect&amp;amp; frame)&lt;/p&gt;&lt;p style=&quot;border-color: var(--border-color); margin: 0px 0px 0px 4px;&quot;&gt;+&amp;nbsp;GetId(): string&lt;/p&gt;&lt;p style=&quot;border-color: var(--border-color); margin: 0px 0px 0px 4px;&quot;&gt;+&amp;nbsp;GetPosition(): Point&lt;/p&gt;&lt;p style=&quot;border-color: var(--border-color); margin: 0px 0px 0px 4px;&quot;&gt;+&amp;nbsp;void SetPosition(Point leftTop)&lt;/p&gt;&lt;p style=&quot;border-color: var(--border-color); margin: 0px 0px 0px 4px;&quot;&gt;+ GetPath(): filesystem::path&lt;br&gt;&lt;/p&gt;&lt;p style=&quot;border-color: var(--border-color); margin: 0px 0px 0px 4px;&quot;&gt;#GetChangedData(): Rect&lt;br&gt;&lt;/p&gt;" style="verticalAlign=top;align=left;overflow=fill;fontSize=12;fontFamily=Helvetica;html=1;whiteSpace=wrap;" parent="1" vertex="1">
          <mxGeometry x="-487.5" y="1780" width="205" height="206" as="geometry" />
        </mxCell>
        <mxCell id="Pqs-TYic2R4L-rjVyj2_-76" value="&lt;p style=&quot;margin:0px;margin-top:4px;text-align:center;&quot;&gt;&lt;b&gt;CShapeAndHistory&amp;nbsp;&lt;/b&gt;&lt;br&gt;&lt;/p&gt;&lt;hr size=&quot;1&quot;&gt;&lt;p style=&quot;border-color: var(--border-color); margin: 0px 0px 0px 4px;&quot;&gt;- m_frame: Rect&lt;br style=&quot;border-color: var(--border-color);&quot;&gt;&lt;/p&gt;&lt;p style=&quot;border-color: var(--border-color); margin: 0px 0px 0px 4px;&quot;&gt;&lt;span style=&quot;border-color: var(--border-color); background-color: initial;&quot;&gt;-m_img: IImagePtr&amp;nbsp;&lt;br style=&quot;border-color: var(--border-color);&quot;&gt;&lt;/span&gt;&lt;/p&gt;&lt;p style=&quot;border-color: var(--border-color); margin: 0px 0px 0px 4px;&quot;&gt;&lt;span style=&quot;border-color: var(--border-color); background-color: initial;&quot;&gt;-m_history: CHistory&amp;amp;&lt;/span&gt;&lt;/p&gt;&lt;hr size=&quot;1&quot;&gt;&lt;p style=&quot;border-color: var(--border-color); margin: 0px 0px 0px 4px;&quot;&gt;+&amp;nbsp;GetFrame() : Rect&lt;/p&gt;&lt;p style=&quot;border-color: var(--border-color); margin: 0px 0px 0px 4px;&quot;&gt;+&amp;nbsp;void SetFrame(const Rect&amp;amp; frame)&lt;/p&gt;&lt;p style=&quot;border-color: var(--border-color); margin: 0px 0px 0px 4px;&quot;&gt;+&amp;nbsp;GetId(): string&lt;/p&gt;&lt;p style=&quot;border-color: var(--border-color); margin: 0px 0px 0px 4px;&quot;&gt;+&amp;nbsp;GetPosition(): Point&lt;/p&gt;&lt;p style=&quot;border-color: var(--border-color); margin: 0px 0px 0px 4px;&quot;&gt;+&amp;nbsp;void SetPosition(Point leftTop)&lt;/p&gt;&lt;p style=&quot;border-color: var(--border-color); margin: 0px 0px 0px 4px;&quot;&gt;+ GetType(): ShapeTypes&lt;br&gt;&lt;/p&gt;&lt;p style=&quot;border-color: var(--border-color); margin: 0px 0px 0px 4px;&quot;&gt;#GetChangedData(): Rect&lt;br&gt;&lt;/p&gt;" style="verticalAlign=top;align=left;overflow=fill;fontSize=12;fontFamily=Helvetica;html=1;whiteSpace=wrap;" parent="1" vertex="1">
          <mxGeometry x="-778" y="1820" width="205" height="206" as="geometry" />
        </mxCell>
        <mxCell id="Pqs-TYic2R4L-rjVyj2_-74" value="" style="endArrow=diamondThin;endFill=0;endSize=24;html=1;rounded=0;entryX=0.802;entryY=0.008;entryDx=0;entryDy=0;entryPerimeter=0;exitX=0.889;exitY=1.022;exitDx=0;exitDy=0;exitPerimeter=0;edgeStyle=orthogonalEdgeStyle;" parent="1" source="Pqs-TYic2R4L-rjVyj2_-46" target="Pqs-TYic2R4L-rjVyj2_-71" edge="1">
          <mxGeometry width="160" relative="1" as="geometry">
            <mxPoint x="-280" y="1730" as="sourcePoint" />
            <mxPoint x="-120" y="1730" as="targetPoint" />
            <Array as="points">
              <mxPoint x="-250" y="1472" />
              <mxPoint x="-250" y="1760" />
              <mxPoint x="-323" y="1760" />
            </Array>
          </mxGeometry>
        </mxCell>
        <mxCell id="Pqs-TYic2R4L-rjVyj2_-75" value="" style="endArrow=diamondThin;endFill=0;endSize=24;html=1;rounded=0;exitX=-0.008;exitY=0.667;exitDx=0;exitDy=0;exitPerimeter=0;" parent="1" source="Pqs-TYic2R4L-rjVyj2_-61" edge="1">
          <mxGeometry width="160" relative="1" as="geometry">
            <mxPoint x="-280" y="1730" as="sourcePoint" />
            <mxPoint x="-280" y="1850" as="targetPoint" />
          </mxGeometry>
        </mxCell>
        <mxCell id="Pqs-TYic2R4L-rjVyj2_-77" value="" style="endArrow=block;dashed=1;endFill=0;endSize=12;html=1;rounded=0;entryX=0;entryY=0.75;entryDx=0;entryDy=0;edgeStyle=orthogonalEdgeStyle;" parent="1" target="Pqs-TYic2R4L-rjVyj2_-43" edge="1">
          <mxGeometry width="160" relative="1" as="geometry">
            <mxPoint x="-740" y="1819" as="sourcePoint" />
            <mxPoint x="-250" y="1750" as="targetPoint" />
            <Array as="points">
              <mxPoint x="-790" y="1819" />
              <mxPoint x="-790" y="1645" />
              <mxPoint x="-800" y="1645" />
              <mxPoint x="-800" y="1448" />
            </Array>
          </mxGeometry>
        </mxCell>
        <mxCell id="Pqs-TYic2R4L-rjVyj2_-78" value="" style="endArrow=diamondThin;endFill=0;endSize=24;html=1;rounded=0;exitX=-0.016;exitY=0.416;exitDx=0;exitDy=0;exitPerimeter=0;edgeStyle=orthogonalEdgeStyle;entryX=0.25;entryY=0;entryDx=0;entryDy=0;" parent="1" source="Pqs-TYic2R4L-rjVyj2_-43" target="Pqs-TYic2R4L-rjVyj2_-76" edge="1">
          <mxGeometry width="160" relative="1" as="geometry">
            <mxPoint x="-700" y="1790" as="sourcePoint" />
            <mxPoint x="-690" y="1800" as="targetPoint" />
            <Array as="points">
              <mxPoint x="-800" y="1417" />
              <mxPoint x="-800" y="1645" />
              <mxPoint x="-830" y="1645" />
              <mxPoint x="-830" y="1800" />
              <mxPoint x="-727" y="1800" />
            </Array>
          </mxGeometry>
        </mxCell>
        <mxCell id="Pqs-TYic2R4L-rjVyj2_-84" value="CConstDocumentItem" style="swimlane;fontStyle=0;childLayout=stackLayout;horizontal=1;startSize=26;fillColor=none;horizontalStack=0;resizeParent=1;resizeParentMax=0;resizeLast=0;collapsible=1;marginBottom=0;whiteSpace=wrap;html=1;" parent="1" vertex="1">
          <mxGeometry x="-100" y="1416" width="280" height="160" as="geometry" />
        </mxCell>
        <mxCell id="Pqs-TYic2R4L-rjVyj2_-85" value="+&amp;nbsp;GetImage() :&amp;nbsp;std::shared_ptr&amp;lt;const IImage&amp;gt;" style="text;strokeColor=none;fillColor=none;align=left;verticalAlign=top;spacingLeft=4;spacingRight=4;overflow=hidden;rotatable=0;points=[[0,0.5],[1,0.5]];portConstraint=eastwest;whiteSpace=wrap;html=1;" parent="Pqs-TYic2R4L-rjVyj2_-84" vertex="1">
          <mxGeometry y="26" width="280" height="44" as="geometry" />
        </mxCell>
        <mxCell id="Pqs-TYic2R4L-rjVyj2_-86" value="+GetShape(): std::shared_ptr&amp;lt;const Shape&amp;gt;" style="text;strokeColor=none;fillColor=none;align=left;verticalAlign=top;spacingLeft=4;spacingRight=4;overflow=hidden;rotatable=0;points=[[0,0.5],[1,0.5]];portConstraint=eastwest;whiteSpace=wrap;html=1;" parent="Pqs-TYic2R4L-rjVyj2_-84" vertex="1">
          <mxGeometry y="70" width="280" height="40" as="geometry" />
        </mxCell>
        <mxCell id="Pqs-TYic2R4L-rjVyj2_-87" value="-&amp;nbsp;m_item:&amp;nbsp;std::variant&amp;lt; std::shared_ptr&amp;lt;IImage&amp;gt;, std::shared_ptr&amp;lt;Shape&amp;gt;&amp;gt;" style="text;strokeColor=none;fillColor=none;align=left;verticalAlign=top;spacingLeft=4;spacingRight=4;overflow=hidden;rotatable=0;points=[[0,0.5],[1,0.5]];portConstraint=eastwest;whiteSpace=wrap;html=1;" parent="Pqs-TYic2R4L-rjVyj2_-84" vertex="1">
          <mxGeometry y="110" width="280" height="50" as="geometry" />
        </mxCell>
        <mxCell id="Pqs-TYic2R4L-rjVyj2_-88" value="CDocumentItem" style="swimlane;fontStyle=0;childLayout=stackLayout;horizontal=1;startSize=26;fillColor=none;horizontalStack=0;resizeParent=1;resizeParentMax=0;resizeLast=0;collapsible=1;marginBottom=0;whiteSpace=wrap;html=1;" parent="1" vertex="1">
          <mxGeometry x="-90" y="1670" width="280" height="110" as="geometry" />
        </mxCell>
        <mxCell id="Pqs-TYic2R4L-rjVyj2_-89" value="+&amp;nbsp;GetImage() :&amp;nbsp;std::shared_ptr&amp;lt;IImage&amp;gt;" style="text;strokeColor=none;fillColor=none;align=left;verticalAlign=top;spacingLeft=4;spacingRight=4;overflow=hidden;rotatable=0;points=[[0,0.5],[1,0.5]];portConstraint=eastwest;whiteSpace=wrap;html=1;" parent="Pqs-TYic2R4L-rjVyj2_-88" vertex="1">
          <mxGeometry y="26" width="280" height="44" as="geometry" />
        </mxCell>
        <mxCell id="Pqs-TYic2R4L-rjVyj2_-90" value="+GetParagraph(): std::shared_ptr&amp;lt;Shape&amp;gt;" style="text;strokeColor=none;fillColor=none;align=left;verticalAlign=top;spacingLeft=4;spacingRight=4;overflow=hidden;rotatable=0;points=[[0,0.5],[1,0.5]];portConstraint=eastwest;whiteSpace=wrap;html=1;" parent="Pqs-TYic2R4L-rjVyj2_-88" vertex="1">
          <mxGeometry y="70" width="280" height="40" as="geometry" />
        </mxCell>
        <mxCell id="Pqs-TYic2R4L-rjVyj2_-91" value="Extends" style="endArrow=block;endSize=16;endFill=0;html=1;rounded=0;" parent="1" source="Pqs-TYic2R4L-rjVyj2_-88" target="Pqs-TYic2R4L-rjVyj2_-87" edge="1">
          <mxGeometry width="160" relative="1" as="geometry">
            <mxPoint x="-190" y="1690" as="sourcePoint" />
            <mxPoint x="-30" y="1690" as="targetPoint" />
          </mxGeometry>
        </mxCell>
        <mxCell id="Pqs-TYic2R4L-rjVyj2_-92" value="" style="endArrow=diamondThin;endFill=0;endSize=24;html=1;rounded=0;exitX=1;exitY=0.5;exitDx=0;exitDy=0;entryX=0;entryY=0.5;entryDx=0;entryDy=0;" parent="1" source="Pqs-TYic2R4L-rjVyj2_-46" target="Pqs-TYic2R4L-rjVyj2_-86" edge="1">
          <mxGeometry width="160" relative="1" as="geometry">
            <mxPoint x="-260" y="1570" as="sourcePoint" />
            <mxPoint x="-100" y="1570" as="targetPoint" />
          </mxGeometry>
        </mxCell>
        <mxCell id="Pqs-TYic2R4L-rjVyj2_-93" value="" style="endArrow=diamondThin;endFill=0;endSize=24;html=1;rounded=0;edgeStyle=orthogonalEdgeStyle;entryX=0;entryY=0.5;entryDx=0;entryDy=0;exitX=0.658;exitY=-0.003;exitDx=0;exitDy=0;exitPerimeter=0;" parent="1" source="Pqs-TYic2R4L-rjVyj2_-43" target="Pqs-TYic2R4L-rjVyj2_-85" edge="1">
          <mxGeometry width="160" relative="1" as="geometry">
            <mxPoint x="-510" y="1400" as="sourcePoint" />
            <mxPoint x="-91" y="1440" as="targetPoint" />
            <Array as="points">
              <mxPoint x="-612" y="1370" />
              <mxPoint x="-590" y="1370" />
              <mxPoint x="-590" y="1350" />
              <mxPoint x="-140" y="1350" />
              <mxPoint x="-140" y="1464" />
            </Array>
          </mxGeometry>
        </mxCell>
        <mxCell id="Pqs-TYic2R4L-rjVyj2_-98" value="&lt;p style=&quot;margin:0px;margin-top:4px;text-align:center;&quot;&gt;&lt;b&gt;CPicture&amp;nbsp;&lt;/b&gt;&lt;br&gt;&lt;/p&gt;&lt;hr size=&quot;1&quot;&gt;&lt;p style=&quot;margin:0px;margin-left:4px;&quot;&gt;-&amp;nbsp;m_changedData; PictureDataToObserver&lt;/p&gt;&lt;p style=&quot;margin:0px;margin-left:4px;&quot;&gt;- m_items: map&amp;lt;std::string, CDocumentItem&amp;gt;&lt;/p&gt;&lt;p style=&quot;margin:0px;margin-left:4px;&quot;&gt;- m_copyItems: map&amp;lt;std::string, CDocumentItem&amp;gt;&lt;br&gt;&lt;/p&gt;&lt;p style=&quot;margin:0px;margin-left:4px;&quot;&gt;- m_history: CHistory&lt;/p&gt;&lt;p style=&quot;margin:0px;margin-left:4px;&quot;&gt;- m_size: Size&lt;/p&gt;&lt;p style=&quot;margin:0px;margin-left:4px;&quot;&gt;-m_copySize: SIze&lt;/p&gt;&lt;hr size=&quot;1&quot;&gt;&lt;p style=&quot;margin:0px;margin-left:4px;&quot;&gt;+ GetItemsCount() : size_t&lt;br style=&quot;border-color: var(--border-color);&quot;&gt;+ GetItem(string idx) : CConstDocumentItem&lt;br style=&quot;border-color: var(--border-color);&quot;&gt;+ GetItem(string idx) : CDocumentItem&lt;br style=&quot;border-color: var(--border-color);&quot;&gt;+ DeleteItem(string idx)&lt;/p&gt;&lt;p style=&quot;margin:0px;margin-left:4px;&quot;&gt;+ SetSize(Size size)&lt;br style=&quot;border-color: var(--border-color);&quot;&gt;+&amp;nbsp;CanUndo(): bool&lt;br style=&quot;border-color: var(--border-color);&quot;&gt;+ Undo()&lt;br style=&quot;border-color: var(--border-color);&quot;&gt;+&amp;nbsp;CanRedo(): bool&lt;br style=&quot;border-color: var(--border-color);&quot;&gt;+&amp;nbsp;Redo ()&lt;br&gt;&lt;/p&gt;&lt;p style=&quot;margin:0px;margin-left:4px;&quot;&gt;+&amp;nbsp;AddShape(IShapePtr shape)&lt;/p&gt;&lt;p style=&quot;margin:0px;margin-left:4px;&quot;&gt;+&amp;nbsp;AddImage(IImagePtr img)&lt;/p&gt;&lt;p style=&quot;margin:0px;margin-left:4px;&quot;&gt;#&amp;nbsp;GetChangedData() :&amp;nbsp;PictureDataToObserver&lt;/p&gt;&lt;p style=&quot;margin:0px;margin-left:4px;&quot;&gt;#&amp;nbsp;FindChangedData() :&amp;nbsp;PictureDataToObserver&amp;nbsp;&lt;/p&gt;" style="verticalAlign=top;align=left;overflow=fill;fontSize=12;fontFamily=Helvetica;html=1;whiteSpace=wrap;" parent="1" vertex="1">
          <mxGeometry x="230" y="1270" width="330" height="320" as="geometry" />
        </mxCell>
        <mxCell id="Pqs-TYic2R4L-rjVyj2_-99" value="Extends" style="endArrow=block;endSize=16;endFill=0;html=1;rounded=0;entryX=1;entryY=0.5;entryDx=0;entryDy=0;exitX=0;exitY=0.25;exitDx=0;exitDy=0;" parent="1" source="Pqs-TYic2R4L-rjVyj2_-98" target="Pqs-TYic2R4L-rjVyj2_-39" edge="1">
          <mxGeometry width="160" relative="1" as="geometry">
            <mxPoint x="180" y="1340" as="sourcePoint" />
            <mxPoint x="340" y="1340" as="targetPoint" />
          </mxGeometry>
        </mxCell>
        <mxCell id="Pqs-TYic2R4L-rjVyj2_-100" value="" style="endArrow=diamondThin;endFill=1;endSize=24;html=1;rounded=0;entryX=-0.01;entryY=0.781;entryDx=0;entryDy=0;entryPerimeter=0;exitX=1;exitY=0.5;exitDx=0;exitDy=0;" parent="1" source="Pqs-TYic2R4L-rjVyj2_-87" target="Pqs-TYic2R4L-rjVyj2_-98" edge="1">
          <mxGeometry width="160" relative="1" as="geometry">
            <mxPoint x="170" y="1620" as="sourcePoint" />
            <mxPoint x="330" y="1620" as="targetPoint" />
          </mxGeometry>
        </mxCell>
        <mxCell id="Pqs-TYic2R4L-rjVyj2_-101" value="" style="endArrow=diamondThin;endFill=1;endSize=24;html=1;rounded=0;entryX=-0.016;entryY=0.893;entryDx=0;entryDy=0;entryPerimeter=0;exitX=0.862;exitY=-0.037;exitDx=0;exitDy=0;exitPerimeter=0;" parent="1" source="Pqs-TYic2R4L-rjVyj2_-88" target="Pqs-TYic2R4L-rjVyj2_-98" edge="1">
          <mxGeometry width="160" relative="1" as="geometry">
            <mxPoint x="190" y="1561" as="sourcePoint" />
            <mxPoint x="237" y="1530" as="targetPoint" />
          </mxGeometry>
        </mxCell>
        <mxCell id="Pqs-TYic2R4L-rjVyj2_-102" value="" style="endArrow=diamondThin;endFill=1;endSize=24;html=1;rounded=0;entryX=0.07;entryY=1.005;entryDx=0;entryDy=0;entryPerimeter=0;exitX=1;exitY=0;exitDx=0;exitDy=0;" parent="1" source="Pqs-TYic2R4L-rjVyj2_-55" target="Pqs-TYic2R4L-rjVyj2_-98" edge="1">
          <mxGeometry width="160" relative="1" as="geometry">
            <mxPoint x="161" y="1676" as="sourcePoint" />
            <mxPoint x="235" y="1566" as="targetPoint" />
          </mxGeometry>
        </mxCell>
        <mxCell id="Pqs-TYic2R4L-rjVyj2_-103" value="" style="endArrow=diamondThin;endFill=1;endSize=24;html=1;rounded=0;entryX=-0.019;entryY=-0.129;entryDx=0;entryDy=0;entryPerimeter=0;exitX=1;exitY=0.5;exitDx=0;exitDy=0;" parent="1" source="Pqs-TYic2R4L-rjVyj2_-64" target="Pqs-TYic2R4L-rjVyj2_-62" edge="1">
          <mxGeometry width="160" relative="1" as="geometry">
            <mxPoint x="80" y="2300" as="sourcePoint" />
            <mxPoint x="240" y="2300" as="targetPoint" />
          </mxGeometry>
        </mxCell>
        <mxCell id="Pqs-TYic2R4L-rjVyj2_-105" value="" style="endArrow=block;dashed=1;endFill=0;endSize=12;html=1;rounded=0;exitX=0.5;exitY=0;exitDx=0;exitDy=0;entryX=0.5;entryY=1;entryDx=0;entryDy=0;" parent="1" source="Pqs-TYic2R4L-rjVyj2_-65" target="Pqs-TYic2R4L-rjVyj2_-64" edge="1">
          <mxGeometry width="160" relative="1" as="geometry">
            <mxPoint x="-290" y="2250" as="sourcePoint" />
            <mxPoint x="-130" y="2250" as="targetPoint" />
          </mxGeometry>
        </mxCell>
        <mxCell id="Pqs-TYic2R4L-rjVyj2_-106" value="&lt;p style=&quot;margin:0px;margin-top:4px;text-align:center;&quot;&gt;&lt;b&gt;SwapTwoValuesCommand&amp;nbsp;&lt;/b&gt;&lt;br&gt;&lt;/p&gt;&lt;hr size=&quot;1&quot;&gt;&lt;p style=&quot;margin:0px;margin-left:4px;&quot;&gt;+DoExecute()&lt;/p&gt;&lt;p style=&quot;margin:0px;margin-left:4px;&quot;&gt;+&amp;nbsp;DoUnExecute()&lt;/p&gt;&lt;hr size=&quot;1&quot;&gt;&lt;p style=&quot;margin:0px;margin-left:4px;&quot;&gt;- m_targetValue: T&amp;amp;&lt;/p&gt;&lt;p style=&quot;margin:0px;margin-left:4px;&quot;&gt;- m_newValue: T&lt;/p&gt;" style="verticalAlign=top;align=left;overflow=fill;fontSize=12;fontFamily=Helvetica;html=1;whiteSpace=wrap;" parent="1" vertex="1">
          <mxGeometry x="-145" y="2650" width="200" height="110" as="geometry" />
        </mxCell>
        <mxCell id="Pqs-TYic2R4L-rjVyj2_-108" value="Extends" style="endArrow=block;endSize=16;endFill=0;html=1;rounded=0;exitX=0.404;exitY=-0.046;exitDx=0;exitDy=0;exitPerimeter=0;" parent="1" source="Pqs-TYic2R4L-rjVyj2_-106" target="Pqs-TYic2R4L-rjVyj2_-70" edge="1">
          <mxGeometry width="160" relative="1" as="geometry">
            <mxPoint x="-620" y="2470" as="sourcePoint" />
            <mxPoint x="-460" y="2470" as="targetPoint" />
          </mxGeometry>
        </mxCell>
        <mxCell id="Pqs-TYic2R4L-rjVyj2_-122" value="Extends" style="endArrow=block;endSize=16;endFill=0;html=1;rounded=0;exitX=-0.01;exitY=0.165;exitDx=0;exitDy=0;exitPerimeter=0;entryX=1;entryY=0.5;entryDx=0;entryDy=0;" parent="1" source="Pqs-TYic2R4L-rjVyj2_-120" target="Pqs-TYic2R4L-rjVyj2_-69" edge="1">
          <mxGeometry width="160" relative="1" as="geometry">
            <mxPoint x="-54" y="2655" as="sourcePoint" />
            <mxPoint x="-94" y="2541" as="targetPoint" />
          </mxGeometry>
        </mxCell>
        <mxCell id="Pqs-TYic2R4L-rjVyj2_-123" value="Extends" style="endArrow=block;endSize=16;endFill=0;html=1;rounded=0;exitX=0;exitY=-0.19;exitDx=0;exitDy=0;exitPerimeter=0;entryX=1.007;entryY=0.181;entryDx=0;entryDy=0;entryPerimeter=0;" parent="1" source="Pqs-TYic2R4L-rjVyj2_-113" target="Pqs-TYic2R4L-rjVyj2_-68" edge="1">
          <mxGeometry width="160" relative="1" as="geometry">
            <mxPoint x="-44" y="2665" as="sourcePoint" />
            <mxPoint x="-84" y="2551" as="targetPoint" />
          </mxGeometry>
        </mxCell>
        <mxCell id="Pqs-TYic2R4L-rjVyj2_-110" value="AddItemCommand" style="swimlane;fontStyle=0;childLayout=stackLayout;horizontal=1;startSize=26;fillColor=none;horizontalStack=0;resizeParent=1;resizeParentMax=0;resizeLast=0;collapsible=1;marginBottom=0;whiteSpace=wrap;html=1;" parent="1" vertex="1">
          <mxGeometry x="140" y="2300" width="210" height="150" as="geometry" />
        </mxCell>
        <mxCell id="Pqs-TYic2R4L-rjVyj2_-111" value="+ DoExecuted()" style="text;strokeColor=none;fillColor=none;align=left;verticalAlign=top;spacingLeft=4;spacingRight=4;overflow=hidden;rotatable=0;points=[[0,0.5],[1,0.5]];portConstraint=eastwest;whiteSpace=wrap;html=1;" parent="Pqs-TYic2R4L-rjVyj2_-110" vertex="1">
          <mxGeometry y="26" width="210" height="26" as="geometry" />
        </mxCell>
        <mxCell id="Pqs-TYic2R4L-rjVyj2_-112" value="+ DoUnExecute()" style="text;strokeColor=none;fillColor=none;align=left;verticalAlign=top;spacingLeft=4;spacingRight=4;overflow=hidden;rotatable=0;points=[[0,0.5],[1,0.5]];portConstraint=eastwest;whiteSpace=wrap;html=1;" parent="Pqs-TYic2R4L-rjVyj2_-110" vertex="1">
          <mxGeometry y="52" width="210" height="26" as="geometry" />
        </mxCell>
        <mxCell id="Pqs-TYic2R4L-rjVyj2_-113" value="- m_items: map&amp;lt;std::string, CDocumentItem&amp;gt;&amp;amp;&lt;p style=&quot;border-color: var(--border-color); margin: 0px 0px 0px 4px;&quot;&gt;&lt;/p&gt;&lt;p style=&quot;border-color: var(--border-color); margin: 0px 0px 0px 4px;&quot;&gt;&lt;/p&gt;" style="text;strokeColor=none;fillColor=none;align=left;verticalAlign=top;spacingLeft=4;spacingRight=4;overflow=hidden;rotatable=0;points=[[0,0.5],[1,0.5]];portConstraint=eastwest;whiteSpace=wrap;html=1;" parent="Pqs-TYic2R4L-rjVyj2_-110" vertex="1">
          <mxGeometry y="78" width="210" height="42" as="geometry" />
        </mxCell>
        <mxCell id="Pqs-TYic2R4L-rjVyj2_-114" value="- m_item : CDocumentItem&lt;p style=&quot;border-color: var(--border-color); margin: 0px 0px 0px 4px;&quot;&gt;&lt;/p&gt;&lt;p style=&quot;border-color: var(--border-color); margin: 0px 0px 0px 4px;&quot;&gt;&lt;/p&gt;" style="text;strokeColor=none;fillColor=none;align=left;verticalAlign=top;spacingLeft=4;spacingRight=4;overflow=hidden;rotatable=0;points=[[0,0.5],[1,0.5]];portConstraint=eastwest;whiteSpace=wrap;html=1;" parent="Pqs-TYic2R4L-rjVyj2_-110" vertex="1">
          <mxGeometry y="120" width="210" height="30" as="geometry" />
        </mxCell>
        <mxCell id="Pqs-TYic2R4L-rjVyj2_-116" value="DeleteItemCommand" style="swimlane;fontStyle=0;childLayout=stackLayout;horizontal=1;startSize=26;fillColor=none;horizontalStack=0;resizeParent=1;resizeParentMax=0;resizeLast=0;collapsible=1;marginBottom=0;whiteSpace=wrap;html=1;" parent="1" vertex="1">
          <mxGeometry x="370" y="2388" width="210" height="180" as="geometry" />
        </mxCell>
        <mxCell id="Pqs-TYic2R4L-rjVyj2_-117" value="+ DoExecuted()" style="text;strokeColor=none;fillColor=none;align=left;verticalAlign=top;spacingLeft=4;spacingRight=4;overflow=hidden;rotatable=0;points=[[0,0.5],[1,0.5]];portConstraint=eastwest;whiteSpace=wrap;html=1;" parent="Pqs-TYic2R4L-rjVyj2_-116" vertex="1">
          <mxGeometry y="26" width="210" height="26" as="geometry" />
        </mxCell>
        <mxCell id="Pqs-TYic2R4L-rjVyj2_-118" value="+ DoUnExecute()" style="text;strokeColor=none;fillColor=none;align=left;verticalAlign=top;spacingLeft=4;spacingRight=4;overflow=hidden;rotatable=0;points=[[0,0.5],[1,0.5]];portConstraint=eastwest;whiteSpace=wrap;html=1;" parent="Pqs-TYic2R4L-rjVyj2_-116" vertex="1">
          <mxGeometry y="52" width="210" height="26" as="geometry" />
        </mxCell>
        <mxCell id="Pqs-TYic2R4L-rjVyj2_-119" value="- m_items: map&amp;lt;std::string, CDocumentItem&amp;gt;&amp;amp;&lt;p style=&quot;border-color: var(--border-color); margin: 0px 0px 0px 4px;&quot;&gt;&lt;/p&gt;&lt;p style=&quot;border-color: var(--border-color); margin: 0px 0px 0px 4px;&quot;&gt;&lt;/p&gt;" style="text;strokeColor=none;fillColor=none;align=left;verticalAlign=top;spacingLeft=4;spacingRight=4;overflow=hidden;rotatable=0;points=[[0,0.5],[1,0.5]];portConstraint=eastwest;whiteSpace=wrap;html=1;" parent="Pqs-TYic2R4L-rjVyj2_-116" vertex="1">
          <mxGeometry y="78" width="210" height="42" as="geometry" />
        </mxCell>
        <mxCell id="Pqs-TYic2R4L-rjVyj2_-120" value="- m_item : CDocumentItem&lt;p style=&quot;border-color: var(--border-color); margin: 0px 0px 0px 4px;&quot;&gt;&lt;/p&gt;&lt;p style=&quot;border-color: var(--border-color); margin: 0px 0px 0px 4px;&quot;&gt;&lt;/p&gt;" style="text;strokeColor=none;fillColor=none;align=left;verticalAlign=top;spacingLeft=4;spacingRight=4;overflow=hidden;rotatable=0;points=[[0,0.5],[1,0.5]];portConstraint=eastwest;whiteSpace=wrap;html=1;" parent="Pqs-TYic2R4L-rjVyj2_-116" vertex="1">
          <mxGeometry y="120" width="210" height="30" as="geometry" />
        </mxCell>
        <mxCell id="Pqs-TYic2R4L-rjVyj2_-121" value="- m_idx: string&amp;nbsp;&lt;p style=&quot;border-color: var(--border-color); margin: 0px 0px 0px 4px;&quot;&gt;&lt;/p&gt;&lt;p style=&quot;border-color: var(--border-color); margin: 0px 0px 0px 4px;&quot;&gt;&lt;/p&gt;" style="text;strokeColor=none;fillColor=none;align=left;verticalAlign=top;spacingLeft=4;spacingRight=4;overflow=hidden;rotatable=0;points=[[0,0.5],[1,0.5]];portConstraint=eastwest;whiteSpace=wrap;html=1;" parent="Pqs-TYic2R4L-rjVyj2_-116" vertex="1">
          <mxGeometry y="150" width="210" height="30" as="geometry" />
        </mxCell>
        <mxCell id="Pqs-TYic2R4L-rjVyj2_-124" value="" style="endArrow=diamondThin;endFill=0;endSize=24;html=1;rounded=0;entryX=0.572;entryY=-0.005;entryDx=0;entryDy=0;entryPerimeter=0;exitX=0.593;exitY=1.068;exitDx=0;exitDy=0;exitPerimeter=0;" parent="1" source="Pqs-TYic2R4L-rjVyj2_-90" target="Pqs-TYic2R4L-rjVyj2_-110" edge="1">
          <mxGeometry width="160" relative="1" as="geometry">
            <mxPoint x="420" y="2190" as="sourcePoint" />
            <mxPoint x="580" y="2190" as="targetPoint" />
          </mxGeometry>
        </mxCell>
        <mxCell id="Pqs-TYic2R4L-rjVyj2_-125" value="" style="endArrow=diamondThin;endFill=0;endSize=24;html=1;rounded=0;entryX=0.381;entryY=-0.044;entryDx=0;entryDy=0;entryPerimeter=0;exitX=0.72;exitY=1.011;exitDx=0;exitDy=0;exitPerimeter=0;" parent="1" source="Pqs-TYic2R4L-rjVyj2_-90" target="Pqs-TYic2R4L-rjVyj2_-116" edge="1">
          <mxGeometry width="160" relative="1" as="geometry">
            <mxPoint x="86" y="1793" as="sourcePoint" />
            <mxPoint x="270" y="2309" as="targetPoint" />
          </mxGeometry>
        </mxCell>
        <mxCell id="Pqs-TYic2R4L-rjVyj2_-131" value="" style="endArrow=block;dashed=1;endFill=0;endSize=12;html=1;rounded=0;exitX=0.008;exitY=-0.148;exitDx=0;exitDy=0;entryX=1;entryY=0.5;entryDx=0;entryDy=0;exitPerimeter=0;" parent="1" source="Pqs-TYic2R4L-rjVyj2_-135" target="Pqs-TYic2R4L-rjVyj2_-35" edge="1">
          <mxGeometry width="160" relative="1" as="geometry">
            <mxPoint x="320" y="1120" as="sourcePoint" />
            <mxPoint x="480" y="1120" as="targetPoint" />
          </mxGeometry>
        </mxCell>
        <mxCell id="Pqs-TYic2R4L-rjVyj2_-126" value="Canvas&amp;nbsp;" style="swimlane;fontStyle=1;align=center;verticalAlign=top;childLayout=stackLayout;horizontal=1;startSize=26;horizontalStack=0;resizeParent=1;resizeParentMax=0;resizeLast=0;collapsible=1;marginBottom=0;whiteSpace=wrap;html=1;" parent="1" vertex="1">
          <mxGeometry x="260" y="260" width="320" height="616" as="geometry" />
        </mxCell>
        <mxCell id="Pqs-TYic2R4L-rjVyj2_-127" value="+&amp;nbsp;Update(PictureDataToObserver const&amp;amp; data)" style="text;strokeColor=none;fillColor=none;align=left;verticalAlign=top;spacingLeft=4;spacingRight=4;overflow=hidden;rotatable=0;points=[[0,0.5],[1,0.5]];portConstraint=eastwest;whiteSpace=wrap;html=1;" parent="Pqs-TYic2R4L-rjVyj2_-126" vertex="1">
          <mxGeometry y="26" width="320" height="34" as="geometry" />
        </mxCell>
        <mxCell id="Pqs-TYic2R4L-rjVyj2_-129" value="+&amp;nbsp;SelectShape(wxViewItem* shape)" style="text;strokeColor=none;fillColor=none;align=left;verticalAlign=top;spacingLeft=4;spacingRight=4;overflow=hidden;rotatable=0;points=[[0,0.5],[1,0.5]];portConstraint=eastwest;whiteSpace=wrap;html=1;" parent="Pqs-TYic2R4L-rjVyj2_-126" vertex="1">
          <mxGeometry y="60" width="320" height="26" as="geometry" />
        </mxCell>
        <mxCell id="Pqs-TYic2R4L-rjVyj2_-128" value="" style="line;strokeWidth=1;fillColor=none;align=left;verticalAlign=middle;spacingTop=-1;spacingLeft=3;spacingRight=3;rotatable=0;labelPosition=right;points=[];portConstraint=eastwest;strokeColor=inherit;" parent="Pqs-TYic2R4L-rjVyj2_-126" vertex="1">
          <mxGeometry y="86" width="320" height="8" as="geometry" />
        </mxCell>
        <mxCell id="Pqs-TYic2R4L-rjVyj2_-132" value="+ DeleteSelectShape()" style="text;strokeColor=none;fillColor=none;align=left;verticalAlign=top;spacingLeft=4;spacingRight=4;overflow=hidden;rotatable=0;points=[[0,0.5],[1,0.5]];portConstraint=eastwest;whiteSpace=wrap;html=1;" parent="Pqs-TYic2R4L-rjVyj2_-126" vertex="1">
          <mxGeometry y="94" width="320" height="26" as="geometry" />
        </mxCell>
        <mxCell id="Pqs-TYic2R4L-rjVyj2_-133" value="+&amp;nbsp;&amp;nbsp;GetSelectShape(): wxViewShape*" style="text;strokeColor=none;fillColor=none;align=left;verticalAlign=top;spacingLeft=4;spacingRight=4;overflow=hidden;rotatable=0;points=[[0,0.5],[1,0.5]];portConstraint=eastwest;whiteSpace=wrap;html=1;" parent="Pqs-TYic2R4L-rjVyj2_-126" vertex="1">
          <mxGeometry y="120" width="320" height="26" as="geometry" />
        </mxCell>
        <mxCell id="Pqs-TYic2R4L-rjVyj2_-134" value="+&amp;nbsp;&amp;nbsp;GetSelectShape(): wxViewShape*" style="text;strokeColor=none;fillColor=none;align=left;verticalAlign=top;spacingLeft=4;spacingRight=4;overflow=hidden;rotatable=0;points=[[0,0.5],[1,0.5]];portConstraint=eastwest;whiteSpace=wrap;html=1;" parent="Pqs-TYic2R4L-rjVyj2_-126" vertex="1">
          <mxGeometry y="146" width="320" height="26" as="geometry" />
        </mxCell>
        <mxCell id="Pqs-TYic2R4L-rjVyj2_-135" value="#&amp;nbsp;ViewItemFactory" style="text;strokeColor=none;fillColor=none;align=left;verticalAlign=top;spacingLeft=4;spacingRight=4;overflow=hidden;rotatable=0;points=[[0,0.5],[1,0.5]];portConstraint=eastwest;whiteSpace=wrap;html=1;" parent="Pqs-TYic2R4L-rjVyj2_-126" vertex="1">
          <mxGeometry y="172" width="320" height="26" as="geometry" />
        </mxCell>
        <mxCell id="Pqs-TYic2R4L-rjVyj2_-140" value="#&amp;nbsp;CreateItem(Canvas* canvas, CDocumentItem* item)" style="text;strokeColor=none;fillColor=none;align=left;verticalAlign=top;spacingLeft=4;spacingRight=4;overflow=hidden;rotatable=0;points=[[0,0.5],[1,0.5]];portConstraint=eastwest;whiteSpace=wrap;html=1;" parent="Pqs-TYic2R4L-rjVyj2_-126" vertex="1">
          <mxGeometry y="198" width="320" height="26" as="geometry" />
        </mxCell>
        <mxCell id="Pqs-TYic2R4L-rjVyj2_-141" value="#&amp;nbsp;CreateShape(Canvas* canvas, CDocumentItem* item,&lt;div&gt;&amp;nbsp; &amp;nbsp; &amp;nbsp; &amp;nbsp; &amp;nbsp; &amp;nbsp; std::function&amp;lt;bool(wxViewItem*)&amp;gt; selectShapeCallback)&lt;/div&gt;" style="text;strokeColor=none;fillColor=none;align=left;verticalAlign=top;spacingLeft=4;spacingRight=4;overflow=hidden;rotatable=0;points=[[0,0.5],[1,0.5]];portConstraint=eastwest;whiteSpace=wrap;html=1;" parent="Pqs-TYic2R4L-rjVyj2_-126" vertex="1">
          <mxGeometry y="224" width="320" height="56" as="geometry" />
        </mxCell>
        <mxCell id="Pqs-TYic2R4L-rjVyj2_-142" value="#&amp;nbsp;CreateImage(Canvas* canvas, CDocumentItem* item,&lt;div&gt;&amp;nbsp; &amp;nbsp; &amp;nbsp; &amp;nbsp; &amp;nbsp; &amp;nbsp; std::function&amp;lt;bool(wxViewItem*)&amp;gt; selectShapeCallback)&lt;/div&gt;" style="text;strokeColor=none;fillColor=none;align=left;verticalAlign=top;spacingLeft=4;spacingRight=4;overflow=hidden;rotatable=0;points=[[0,0.5],[1,0.5]];portConstraint=eastwest;whiteSpace=wrap;html=1;" parent="Pqs-TYic2R4L-rjVyj2_-126" vertex="1">
          <mxGeometry y="280" width="320" height="56" as="geometry" />
        </mxCell>
        <mxCell id="Pqs-TYic2R4L-rjVyj2_-143" value="#&amp;nbsp;CreateImage(Canvas* canvas, CDocumentItem* item,&lt;div&gt;&amp;nbsp; &amp;nbsp; &amp;nbsp; &amp;nbsp; &amp;nbsp; &amp;nbsp; std::function&amp;lt;bool(wxViewItem*)&amp;gt; selectShapeCallback)&lt;/div&gt;" style="text;strokeColor=none;fillColor=none;align=left;verticalAlign=top;spacingLeft=4;spacingRight=4;overflow=hidden;rotatable=0;points=[[0,0.5],[1,0.5]];portConstraint=eastwest;whiteSpace=wrap;html=1;" parent="Pqs-TYic2R4L-rjVyj2_-126" vertex="1">
          <mxGeometry y="336" width="320" height="56" as="geometry" />
        </mxCell>
        <mxCell id="Pqs-TYic2R4L-rjVyj2_-144" value="-&amp;nbsp;OnKeyBoardEvents(wxKeyEvent&amp;amp; evt)" style="text;strokeColor=none;fillColor=none;align=left;verticalAlign=top;spacingLeft=4;spacingRight=4;overflow=hidden;rotatable=0;points=[[0,0.5],[1,0.5]];portConstraint=eastwest;whiteSpace=wrap;html=1;" parent="Pqs-TYic2R4L-rjVyj2_-126" vertex="1">
          <mxGeometry y="392" width="320" height="28" as="geometry" />
        </mxCell>
        <mxCell id="Pqs-TYic2R4L-rjVyj2_-145" value="-&amp;nbsp;&amp;nbsp;OnMouseEvents(wxMouseEvent&amp;amp; evt" style="text;strokeColor=none;fillColor=none;align=left;verticalAlign=top;spacingLeft=4;spacingRight=4;overflow=hidden;rotatable=0;points=[[0,0.5],[1,0.5]];portConstraint=eastwest;whiteSpace=wrap;html=1;" parent="Pqs-TYic2R4L-rjVyj2_-126" vertex="1">
          <mxGeometry y="420" width="320" height="28" as="geometry" />
        </mxCell>
        <mxCell id="Pqs-TYic2R4L-rjVyj2_-146" value="-&amp;nbsp;Resize(wxSizeEvent&amp;amp; event)" style="text;strokeColor=none;fillColor=none;align=left;verticalAlign=top;spacingLeft=4;spacingRight=4;overflow=hidden;rotatable=0;points=[[0,0.5],[1,0.5]];portConstraint=eastwest;whiteSpace=wrap;html=1;" parent="Pqs-TYic2R4L-rjVyj2_-126" vertex="1">
          <mxGeometry y="448" width="320" height="28" as="geometry" />
        </mxCell>
        <mxCell id="Pqs-TYic2R4L-rjVyj2_-147" value="-&amp;nbsp;m_picture;: CPicture*" style="text;strokeColor=none;fillColor=none;align=left;verticalAlign=top;spacingLeft=4;spacingRight=4;overflow=hidden;rotatable=0;points=[[0,0.5],[1,0.5]];portConstraint=eastwest;whiteSpace=wrap;html=1;" parent="Pqs-TYic2R4L-rjVyj2_-126" vertex="1">
          <mxGeometry y="476" width="320" height="28" as="geometry" />
        </mxCell>
        <mxCell id="Pqs-TYic2R4L-rjVyj2_-148" value="- m_factory : ViewItemFactory" style="text;strokeColor=none;fillColor=none;align=left;verticalAlign=top;spacingLeft=4;spacingRight=4;overflow=hidden;rotatable=0;points=[[0,0.5],[1,0.5]];portConstraint=eastwest;whiteSpace=wrap;html=1;" parent="Pqs-TYic2R4L-rjVyj2_-126" vertex="1">
          <mxGeometry y="504" width="320" height="28" as="geometry" />
        </mxCell>
        <mxCell id="Pqs-TYic2R4L-rjVyj2_-149" value="-&amp;nbsp;m_selectedShape;: wxViewItem*" style="text;strokeColor=none;fillColor=none;align=left;verticalAlign=top;spacingLeft=4;spacingRight=4;overflow=hidden;rotatable=0;points=[[0,0.5],[1,0.5]];portConstraint=eastwest;whiteSpace=wrap;html=1;" parent="Pqs-TYic2R4L-rjVyj2_-126" vertex="1">
          <mxGeometry y="532" width="320" height="28" as="geometry" />
        </mxCell>
        <mxCell id="Pqs-TYic2R4L-rjVyj2_-150" value="- m_marker: ResizingMarker*" style="text;strokeColor=none;fillColor=none;align=left;verticalAlign=top;spacingLeft=4;spacingRight=4;overflow=hidden;rotatable=0;points=[[0,0.5],[1,0.5]];portConstraint=eastwest;whiteSpace=wrap;html=1;" parent="Pqs-TYic2R4L-rjVyj2_-126" vertex="1">
          <mxGeometry y="560" width="320" height="28" as="geometry" />
        </mxCell>
        <mxCell id="Pqs-TYic2R4L-rjVyj2_-151" value="- m_controller: unique_ptr&amp;lt;ICanvasController&amp;gt;" style="text;strokeColor=none;fillColor=none;align=left;verticalAlign=top;spacingLeft=4;spacingRight=4;overflow=hidden;rotatable=0;points=[[0,0.5],[1,0.5]];portConstraint=eastwest;whiteSpace=wrap;html=1;" parent="Pqs-TYic2R4L-rjVyj2_-126" vertex="1">
          <mxGeometry y="588" width="320" height="28" as="geometry" />
        </mxCell>
        <mxCell id="Pqs-TYic2R4L-rjVyj2_-152" value="" style="endArrow=diamondThin;endFill=0;endSize=24;html=1;rounded=0;exitX=0.365;exitY=0.002;exitDx=0;exitDy=0;exitPerimeter=0;" parent="1" source="Pqs-TYic2R4L-rjVyj2_-98" target="Pqs-TYic2R4L-rjVyj2_-151" edge="1">
          <mxGeometry width="160" relative="1" as="geometry">
            <mxPoint x="370" y="980" as="sourcePoint" />
            <mxPoint x="530" y="980" as="targetPoint" />
          </mxGeometry>
        </mxCell>
        <mxCell id="Pqs-TYic2R4L-rjVyj2_-153" value="MainFrame&amp;nbsp;" style="swimlane;fontStyle=0;childLayout=stackLayout;horizontal=1;startSize=26;fillColor=none;horizontalStack=0;resizeParent=1;resizeParentMax=0;resizeLast=0;collapsible=1;marginBottom=0;whiteSpace=wrap;html=1;" parent="1" vertex="1">
          <mxGeometry x="-350" y="470" width="320" height="234" as="geometry" />
        </mxCell>
        <mxCell id="Pqs-TYic2R4L-rjVyj2_-155" value="-&amp;nbsp;OnAbout(wxCommandEvent&amp;amp; event)" style="text;strokeColor=none;fillColor=none;align=left;verticalAlign=top;spacingLeft=4;spacingRight=4;overflow=hidden;rotatable=0;points=[[0,0.5],[1,0.5]];portConstraint=eastwest;whiteSpace=wrap;html=1;" parent="Pqs-TYic2R4L-rjVyj2_-153" vertex="1">
          <mxGeometry y="26" width="320" height="26" as="geometry" />
        </mxCell>
        <mxCell id="Pqs-TYic2R4L-rjVyj2_-156" value="-&amp;nbsp;OnToolItem(wxCommandEvent&amp;amp; event)" style="text;strokeColor=none;fillColor=none;align=left;verticalAlign=top;spacingLeft=4;spacingRight=4;overflow=hidden;rotatable=0;points=[[0,0.5],[1,0.5]];portConstraint=eastwest;whiteSpace=wrap;html=1;" parent="Pqs-TYic2R4L-rjVyj2_-153" vertex="1">
          <mxGeometry y="52" width="320" height="26" as="geometry" />
        </mxCell>
        <mxCell id="Pqs-TYic2R4L-rjVyj2_-157" value="-&amp;nbsp;m_canvas :&amp;nbsp;Canvas*" style="text;strokeColor=none;fillColor=none;align=left;verticalAlign=top;spacingLeft=4;spacingRight=4;overflow=hidden;rotatable=0;points=[[0,0.5],[1,0.5]];portConstraint=eastwest;whiteSpace=wrap;html=1;" parent="Pqs-TYic2R4L-rjVyj2_-153" vertex="1">
          <mxGeometry y="78" width="320" height="26" as="geometry" />
        </mxCell>
        <mxCell id="Pqs-TYic2R4L-rjVyj2_-158" value="- m_controller std::unique_ptr&amp;lt;IMainFrameController&amp;gt;" style="text;strokeColor=none;fillColor=none;align=left;verticalAlign=top;spacingLeft=4;spacingRight=4;overflow=hidden;rotatable=0;points=[[0,0.5],[1,0.5]];portConstraint=eastwest;whiteSpace=wrap;html=1;" parent="Pqs-TYic2R4L-rjVyj2_-153" vertex="1">
          <mxGeometry y="104" width="320" height="26" as="geometry" />
        </mxCell>
        <mxCell id="Pqs-TYic2R4L-rjVyj2_-159" value="- m_model : CPicture*" style="text;strokeColor=none;fillColor=none;align=left;verticalAlign=top;spacingLeft=4;spacingRight=4;overflow=hidden;rotatable=0;points=[[0,0.5],[1,0.5]];portConstraint=eastwest;whiteSpace=wrap;html=1;" parent="Pqs-TYic2R4L-rjVyj2_-153" vertex="1">
          <mxGeometry y="130" width="320" height="26" as="geometry" />
        </mxCell>
        <mxCell id="Pqs-TYic2R4L-rjVyj2_-161" value="-&amp;nbsp;m_shapesFactory :&amp;nbsp;CShapeFactory&amp;nbsp;" style="text;strokeColor=none;fillColor=none;align=left;verticalAlign=top;spacingLeft=4;spacingRight=4;overflow=hidden;rotatable=0;points=[[0,0.5],[1,0.5]];portConstraint=eastwest;whiteSpace=wrap;html=1;" parent="Pqs-TYic2R4L-rjVyj2_-153" vertex="1">
          <mxGeometry y="156" width="320" height="26" as="geometry" />
        </mxCell>
        <mxCell id="Pqs-TYic2R4L-rjVyj2_-162" value="-&amp;nbsp;CImageFactory&amp;nbsp;:&amp;nbsp;m_imageFactory;" style="text;strokeColor=none;fillColor=none;align=left;verticalAlign=top;spacingLeft=4;spacingRight=4;overflow=hidden;rotatable=0;points=[[0,0.5],[1,0.5]];portConstraint=eastwest;whiteSpace=wrap;html=1;" parent="Pqs-TYic2R4L-rjVyj2_-153" vertex="1">
          <mxGeometry y="182" width="320" height="26" as="geometry" />
        </mxCell>
        <mxCell id="Pqs-TYic2R4L-rjVyj2_-154" value="-&amp;nbsp;OnExit(wxCommandEvent&amp;amp; event)" style="text;strokeColor=none;fillColor=none;align=left;verticalAlign=top;spacingLeft=4;spacingRight=4;overflow=hidden;rotatable=0;points=[[0,0.5],[1,0.5]];portConstraint=eastwest;whiteSpace=wrap;html=1;" parent="Pqs-TYic2R4L-rjVyj2_-153" vertex="1">
          <mxGeometry y="208" width="320" height="26" as="geometry" />
        </mxCell>
        <mxCell id="Pqs-TYic2R4L-rjVyj2_-163" value="" style="endArrow=diamondThin;endFill=1;endSize=24;html=1;rounded=0;entryX=1;entryY=0.5;entryDx=0;entryDy=0;exitX=0;exitY=0.5;exitDx=0;exitDy=0;" parent="1" source="Pqs-TYic2R4L-rjVyj2_-142" target="Pqs-TYic2R4L-rjVyj2_-158" edge="1">
          <mxGeometry width="160" relative="1" as="geometry">
            <mxPoint x="-240" y="750" as="sourcePoint" />
            <mxPoint x="-80" y="750" as="targetPoint" />
          </mxGeometry>
        </mxCell>
        <mxCell id="Pqs-TYic2R4L-rjVyj2_-172" value="" style="endArrow=diamondThin;endFill=1;endSize=24;html=1;rounded=0;entryX=0;entryY=0.5;entryDx=0;entryDy=0;exitX=1;exitY=0.25;exitDx=0;exitDy=0;" parent="1" source="Pqs-TYic2R4L-rjVyj2_-165" target="Pqs-TYic2R4L-rjVyj2_-157" edge="1">
          <mxGeometry width="160" relative="1" as="geometry">
            <mxPoint x="270" y="578" as="sourcePoint" />
            <mxPoint x="-20" y="623" as="targetPoint" />
          </mxGeometry>
        </mxCell>
        <mxCell id="Pqs-TYic2R4L-rjVyj2_-239" value="" style="endArrow=diamondThin;endFill=1;endSize=24;html=1;rounded=0;entryX=0.317;entryY=0.008;entryDx=0;entryDy=0;entryPerimeter=0;" parent="1" source="Pqs-TYic2R4L-rjVyj2_-238" target="Pqs-TYic2R4L-rjVyj2_-153" edge="1">
          <mxGeometry width="160" relative="1" as="geometry">
            <mxPoint x="-560" y="585" as="sourcePoint" />
            <mxPoint x="-340" y="571" as="targetPoint" />
          </mxGeometry>
        </mxCell>
        <mxCell id="Pqs-TYic2R4L-rjVyj2_-173" value="" style="endArrow=diamondThin;endFill=1;endSize=24;html=1;rounded=0;entryX=0;entryY=0.5;entryDx=0;entryDy=0;exitX=1.005;exitY=0.148;exitDx=0;exitDy=0;exitPerimeter=0;" parent="1" source="Pqs-TYic2R4L-rjVyj2_-169" target="Pqs-TYic2R4L-rjVyj2_-158" edge="1">
          <mxGeometry width="160" relative="1" as="geometry">
            <mxPoint x="-560" y="585" as="sourcePoint" />
            <mxPoint x="-340" y="597" as="targetPoint" />
          </mxGeometry>
        </mxCell>
        <mxCell id="Pqs-TYic2R4L-rjVyj2_-164" value="" style="endArrow=diamondThin;endFill=0;endSize=24;html=1;rounded=0;entryX=0.756;entryY=1.103;entryDx=0;entryDy=0;entryPerimeter=0;exitX=0.313;exitY=-0.019;exitDx=0;exitDy=0;exitPerimeter=0;" parent="1" source="Pqs-TYic2R4L-rjVyj2_-98" target="Pqs-TYic2R4L-rjVyj2_-154" edge="1">
          <mxGeometry width="160" relative="1" as="geometry">
            <mxPoint x="-240" y="750" as="sourcePoint" />
            <mxPoint x="-80" y="750" as="targetPoint" />
          </mxGeometry>
        </mxCell>
        <mxCell id="Pqs-TYic2R4L-rjVyj2_-165" value="CShapeFactory" style="swimlane;fontStyle=1;align=center;verticalAlign=top;childLayout=stackLayout;horizontal=1;startSize=26;horizontalStack=0;resizeParent=1;resizeParentMax=0;resizeLast=0;collapsible=1;marginBottom=0;whiteSpace=wrap;html=1;" parent="1" vertex="1">
          <mxGeometry x="-1020" y="560" width="450" height="60" as="geometry" />
        </mxCell>
        <mxCell id="Pqs-TYic2R4L-rjVyj2_-166" value="+&amp;nbsp;CreateShape(const std::string&amp;amp; id, ShapeTypes type, Rect frame) : IShapePtr" style="text;strokeColor=none;fillColor=none;align=left;verticalAlign=top;spacingLeft=4;spacingRight=4;overflow=hidden;rotatable=0;points=[[0,0.5],[1,0.5]];portConstraint=eastwest;whiteSpace=wrap;html=1;" parent="Pqs-TYic2R4L-rjVyj2_-165" vertex="1">
          <mxGeometry y="26" width="450" height="26" as="geometry" />
        </mxCell>
        <mxCell id="Pqs-TYic2R4L-rjVyj2_-167" value="" style="line;strokeWidth=1;fillColor=none;align=left;verticalAlign=middle;spacingTop=-1;spacingLeft=3;spacingRight=3;rotatable=0;labelPosition=right;points=[];portConstraint=eastwest;strokeColor=inherit;" parent="Pqs-TYic2R4L-rjVyj2_-165" vertex="1">
          <mxGeometry y="52" width="450" height="8" as="geometry" />
        </mxCell>
        <mxCell id="Pqs-TYic2R4L-rjVyj2_-169" value="CImageFactory" style="swimlane;fontStyle=1;align=center;verticalAlign=top;childLayout=stackLayout;horizontal=1;startSize=26;horizontalStack=0;resizeParent=1;resizeParentMax=0;resizeLast=0;collapsible=1;marginBottom=0;whiteSpace=wrap;html=1;" parent="1" vertex="1">
          <mxGeometry x="-1030" y="660" width="490" height="88" as="geometry" />
        </mxCell>
        <mxCell id="Pqs-TYic2R4L-rjVyj2_-170" value="+&amp;nbsp;CreateImage(const std::string&amp;amp; id,&amp;nbsp;&lt;br&gt;&lt;span style=&quot;background-color: initial;&quot;&gt;&lt;span style=&quot;&quot;&gt;&amp;nbsp;&amp;nbsp;&amp;nbsp;&amp;nbsp;&lt;/span&gt;&lt;span style=&quot;&quot;&gt;&amp;nbsp;&amp;nbsp;&amp;nbsp;&amp;nbsp;&lt;/span&gt;&lt;/span&gt;&lt;span style=&quot;background-color: initial;&quot;&gt;const std::filesystem::path&amp;amp; path, Rect frame)&lt;/span&gt;&amp;nbsp;: shared_ptr&amp;lt;IImage&amp;gt;" style="text;strokeColor=none;fillColor=none;align=left;verticalAlign=top;spacingLeft=4;spacingRight=4;overflow=hidden;rotatable=0;points=[[0,0.5],[1,0.5]];portConstraint=eastwest;whiteSpace=wrap;html=1;" parent="Pqs-TYic2R4L-rjVyj2_-169" vertex="1">
          <mxGeometry y="26" width="490" height="54" as="geometry" />
        </mxCell>
        <mxCell id="Pqs-TYic2R4L-rjVyj2_-171" value="" style="line;strokeWidth=1;fillColor=none;align=left;verticalAlign=middle;spacingTop=-1;spacingLeft=3;spacingRight=3;rotatable=0;labelPosition=right;points=[];portConstraint=eastwest;strokeColor=inherit;" parent="Pqs-TYic2R4L-rjVyj2_-169" vertex="1">
          <mxGeometry y="80" width="490" height="8" as="geometry" />
        </mxCell>
        <mxCell id="Pqs-TYic2R4L-rjVyj2_-174" value="Use" style="endArrow=open;endSize=12;dashed=1;html=1;rounded=0;entryX=0.25;entryY=0;entryDx=0;entryDy=0;exitX=0.615;exitY=0.768;exitDx=0;exitDy=0;exitPerimeter=0;" parent="1" source="Pqs-TYic2R4L-rjVyj2_-171" target="Pqs-TYic2R4L-rjVyj2_-24" edge="1">
          <mxGeometry width="160" relative="1" as="geometry">
            <mxPoint x="-470" y="850" as="sourcePoint" />
            <mxPoint x="-310" y="850" as="targetPoint" />
          </mxGeometry>
        </mxCell>
        <mxCell id="Pqs-TYic2R4L-rjVyj2_-176" value="Use" style="endArrow=open;endSize=12;dashed=1;html=1;rounded=0;entryX=0.25;entryY=0;entryDx=0;entryDy=0;exitX=0.25;exitY=1;exitDx=0;exitDy=0;" parent="1" source="Pqs-TYic2R4L-rjVyj2_-169" target="Pqs-TYic2R4L-rjVyj2_-43" edge="1">
          <mxGeometry width="160" relative="1" as="geometry">
            <mxPoint x="-719" y="756" as="sourcePoint" />
            <mxPoint x="-528" y="980" as="targetPoint" />
          </mxGeometry>
        </mxCell>
        <mxCell id="Pqs-TYic2R4L-rjVyj2_-177" value="Use" style="endArrow=open;endSize=12;dashed=1;html=1;rounded=0;exitX=0.168;exitY=0.973;exitDx=0;exitDy=0;exitPerimeter=0;edgeStyle=orthogonalEdgeStyle;" parent="1" source="Pqs-TYic2R4L-rjVyj2_-166" target="Pqs-TYic2R4L-rjVyj2_-46" edge="1">
          <mxGeometry width="160" relative="1" as="geometry">
            <mxPoint x="-897" y="758" as="sourcePoint" />
            <mxPoint x="-687" y="1390" as="targetPoint" />
            <Array as="points">
              <mxPoint x="-1090" y="611" />
              <mxPoint x="-1090" y="996" />
              <mxPoint x="-1080" y="996" />
              <mxPoint x="-1080" y="1374" />
              <mxPoint x="-385" y="1374" />
            </Array>
          </mxGeometry>
        </mxCell>
        <mxCell id="Pqs-TYic2R4L-rjVyj2_-175" value="Use" style="endArrow=open;endSize=12;dashed=1;html=1;rounded=0;entryX=0.384;entryY=-0.013;entryDx=0;entryDy=0;entryPerimeter=0;" parent="1" source="Pqs-TYic2R4L-rjVyj2_-167" target="Pqs-TYic2R4L-rjVyj2_-24" edge="1">
          <mxGeometry width="160" relative="1" as="geometry">
            <mxPoint x="-719" y="756" as="sourcePoint" />
            <mxPoint x="-528" y="980" as="targetPoint" />
          </mxGeometry>
        </mxCell>
        <mxCell id="Pqs-TYic2R4L-rjVyj2_-178" value="wxViewItem&amp;nbsp;" style="swimlane;fontStyle=0;childLayout=stackLayout;horizontal=1;startSize=26;fillColor=none;horizontalStack=0;resizeParent=1;resizeParentMax=0;resizeLast=0;collapsible=1;marginBottom=0;whiteSpace=wrap;html=1;" parent="1" vertex="1">
          <mxGeometry x="870" y="580" width="330" height="390" as="geometry" />
        </mxCell>
        <mxCell id="Pqs-TYic2R4L-rjVyj2_-179" value="+&amp;nbsp;Update(Rect const&amp;amp; data)" style="text;strokeColor=none;fillColor=none;align=left;verticalAlign=top;spacingLeft=4;spacingRight=4;overflow=hidden;rotatable=0;points=[[0,0.5],[1,0.5]];portConstraint=eastwest;whiteSpace=wrap;html=1;" parent="Pqs-TYic2R4L-rjVyj2_-178" vertex="1">
          <mxGeometry y="26" width="330" height="26" as="geometry" />
        </mxCell>
        <mxCell id="Pqs-TYic2R4L-rjVyj2_-180" value="+&amp;nbsp;GetSelection(): bool" style="text;strokeColor=none;fillColor=none;align=left;verticalAlign=top;spacingLeft=4;spacingRight=4;overflow=hidden;rotatable=0;points=[[0,0.5],[1,0.5]];portConstraint=eastwest;whiteSpace=wrap;html=1;" parent="Pqs-TYic2R4L-rjVyj2_-178" vertex="1">
          <mxGeometry y="52" width="330" height="26" as="geometry" />
        </mxCell>
        <mxCell id="Pqs-TYic2R4L-rjVyj2_-182" value="+&amp;nbsp;Draw(wxDC&amp;amp; dc)" style="text;strokeColor=none;fillColor=none;align=left;verticalAlign=top;spacingLeft=4;spacingRight=4;overflow=hidden;rotatable=0;points=[[0,0.5],[1,0.5]];portConstraint=eastwest;whiteSpace=wrap;html=1;" parent="Pqs-TYic2R4L-rjVyj2_-178" vertex="1">
          <mxGeometry y="78" width="330" height="26" as="geometry" />
        </mxCell>
        <mxCell id="Pqs-TYic2R4L-rjVyj2_-183" value="+&amp;nbsp;UnSelect()" style="text;strokeColor=none;fillColor=none;align=left;verticalAlign=top;spacingLeft=4;spacingRight=4;overflow=hidden;rotatable=0;points=[[0,0.5],[1,0.5]];portConstraint=eastwest;whiteSpace=wrap;html=1;" parent="Pqs-TYic2R4L-rjVyj2_-178" vertex="1">
          <mxGeometry y="104" width="330" height="26" as="geometry" />
        </mxCell>
        <mxCell id="Pqs-TYic2R4L-rjVyj2_-184" value="+&amp;nbsp;Select()" style="text;strokeColor=none;fillColor=none;align=left;verticalAlign=top;spacingLeft=4;spacingRight=4;overflow=hidden;rotatable=0;points=[[0,0.5],[1,0.5]];portConstraint=eastwest;whiteSpace=wrap;html=1;" parent="Pqs-TYic2R4L-rjVyj2_-178" vertex="1">
          <mxGeometry y="130" width="330" height="26" as="geometry" />
        </mxCell>
        <mxCell id="Pqs-TYic2R4L-rjVyj2_-181" value="-&amp;nbsp;OnPaint(wxPaintEvent&amp;amp; event)" style="text;strokeColor=none;fillColor=none;align=left;verticalAlign=top;spacingLeft=4;spacingRight=4;overflow=hidden;rotatable=0;points=[[0,0.5],[1,0.5]];portConstraint=eastwest;whiteSpace=wrap;html=1;" parent="Pqs-TYic2R4L-rjVyj2_-178" vertex="1">
          <mxGeometry y="156" width="330" height="26" as="geometry" />
        </mxCell>
        <mxCell id="Pqs-TYic2R4L-rjVyj2_-185" value="-&amp;nbsp;MouseEventsHandler(wxMouseEvent&amp;amp; evt)" style="text;strokeColor=none;fillColor=none;align=left;verticalAlign=top;spacingLeft=4;spacingRight=4;overflow=hidden;rotatable=0;points=[[0,0.5],[1,0.5]];portConstraint=eastwest;whiteSpace=wrap;html=1;" parent="Pqs-TYic2R4L-rjVyj2_-178" vertex="1">
          <mxGeometry y="182" width="330" height="26" as="geometry" />
        </mxCell>
        <mxCell id="Pqs-TYic2R4L-rjVyj2_-186" value="-&amp;nbsp;DragAndDrop(wxMouseEvent&amp;amp; evt)" style="text;strokeColor=none;fillColor=none;align=left;verticalAlign=top;spacingLeft=4;spacingRight=4;overflow=hidden;rotatable=0;points=[[0,0.5],[1,0.5]];portConstraint=eastwest;whiteSpace=wrap;html=1;" parent="Pqs-TYic2R4L-rjVyj2_-178" vertex="1">
          <mxGeometry y="208" width="330" height="26" as="geometry" />
        </mxCell>
        <mxCell id="Pqs-TYic2R4L-rjVyj2_-188" value="-&amp;nbsp;&amp;nbsp;ChangeMarkerPositions(wxSizeEvent&amp;amp; evt)" style="text;strokeColor=none;fillColor=none;align=left;verticalAlign=top;spacingLeft=4;spacingRight=4;overflow=hidden;rotatable=0;points=[[0,0.5],[1,0.5]];portConstraint=eastwest;whiteSpace=wrap;html=1;" parent="Pqs-TYic2R4L-rjVyj2_-178" vertex="1">
          <mxGeometry y="234" width="330" height="26" as="geometry" />
        </mxCell>
        <mxCell id="Pqs-TYic2R4L-rjVyj2_-187" value="- m_model: IPictureItemPtr&amp;nbsp;" style="text;strokeColor=none;fillColor=none;align=left;verticalAlign=top;spacingLeft=4;spacingRight=4;overflow=hidden;rotatable=0;points=[[0,0.5],[1,0.5]];portConstraint=eastwest;whiteSpace=wrap;html=1;" parent="Pqs-TYic2R4L-rjVyj2_-178" vertex="1">
          <mxGeometry y="260" width="330" height="26" as="geometry" />
        </mxCell>
        <mxCell id="Pqs-TYic2R4L-rjVyj2_-190" value="- m_isSelect&amp;nbsp;: bool" style="text;strokeColor=none;fillColor=none;align=left;verticalAlign=top;spacingLeft=4;spacingRight=4;overflow=hidden;rotatable=0;points=[[0,0.5],[1,0.5]];portConstraint=eastwest;whiteSpace=wrap;html=1;" parent="Pqs-TYic2R4L-rjVyj2_-178" vertex="1">
          <mxGeometry y="286" width="330" height="26" as="geometry" />
        </mxCell>
        <mxCell id="Pqs-TYic2R4L-rjVyj2_-191" value="- m_resizeMarkers;: array&amp;lt;ResizingMarker*, 4&amp;gt;" style="text;strokeColor=none;fillColor=none;align=left;verticalAlign=top;spacingLeft=4;spacingRight=4;overflow=hidden;rotatable=0;points=[[0,0.5],[1,0.5]];portConstraint=eastwest;whiteSpace=wrap;html=1;" parent="Pqs-TYic2R4L-rjVyj2_-178" vertex="1">
          <mxGeometry y="312" width="330" height="26" as="geometry" />
        </mxCell>
        <mxCell id="Pqs-TYic2R4L-rjVyj2_-192" value="- m_startPoint;: wxPoint" style="text;strokeColor=none;fillColor=none;align=left;verticalAlign=top;spacingLeft=4;spacingRight=4;overflow=hidden;rotatable=0;points=[[0,0.5],[1,0.5]];portConstraint=eastwest;whiteSpace=wrap;html=1;" parent="Pqs-TYic2R4L-rjVyj2_-178" vertex="1">
          <mxGeometry y="338" width="330" height="26" as="geometry" />
        </mxCell>
        <mxCell id="Pqs-TYic2R4L-rjVyj2_-189" value="- m_selectedCallback: function&amp;lt;bool(wxViewItem*)&amp;gt;" style="text;strokeColor=none;fillColor=none;align=left;verticalAlign=top;spacingLeft=4;spacingRight=4;overflow=hidden;rotatable=0;points=[[0,0.5],[1,0.5]];portConstraint=eastwest;whiteSpace=wrap;html=1;" parent="Pqs-TYic2R4L-rjVyj2_-178" vertex="1">
          <mxGeometry y="364" width="330" height="26" as="geometry" />
        </mxCell>
        <mxCell id="Pqs-TYic2R4L-rjVyj2_-193" value="" style="endArrow=diamondThin;endFill=1;endSize=24;html=1;rounded=0;entryX=1;entryY=0.048;entryDx=0;entryDy=0;entryPerimeter=0;exitX=0.005;exitY=0.049;exitDx=0;exitDy=0;exitPerimeter=0;" parent="1" source="Pqs-TYic2R4L-rjVyj2_-182" target="Pqs-TYic2R4L-rjVyj2_-142" edge="1">
          <mxGeometry width="160" relative="1" as="geometry">
            <mxPoint x="650" y="620" as="sourcePoint" />
            <mxPoint x="810" y="620" as="targetPoint" />
          </mxGeometry>
        </mxCell>
        <mxCell id="Pqs-TYic2R4L-rjVyj2_-194" value="wxViewEllipse&amp;nbsp;" style="swimlane;fontStyle=0;childLayout=stackLayout;horizontal=1;startSize=26;fillColor=none;horizontalStack=0;resizeParent=1;resizeParentMax=0;resizeLast=0;collapsible=1;marginBottom=0;whiteSpace=wrap;html=1;" parent="1" vertex="1">
          <mxGeometry x="1300" y="670" width="140" height="52" as="geometry" />
        </mxCell>
        <mxCell id="Pqs-TYic2R4L-rjVyj2_-195" value="+&amp;nbsp;Draw(wxDC&amp;amp; dc)" style="text;strokeColor=none;fillColor=none;align=left;verticalAlign=top;spacingLeft=4;spacingRight=4;overflow=hidden;rotatable=0;points=[[0,0.5],[1,0.5]];portConstraint=eastwest;whiteSpace=wrap;html=1;" parent="Pqs-TYic2R4L-rjVyj2_-194" vertex="1">
          <mxGeometry y="26" width="140" height="26" as="geometry" />
        </mxCell>
        <mxCell id="Pqs-TYic2R4L-rjVyj2_-198" value="wxViewRectangle" style="swimlane;fontStyle=0;childLayout=stackLayout;horizontal=1;startSize=26;fillColor=none;horizontalStack=0;resizeParent=1;resizeParentMax=0;resizeLast=0;collapsible=1;marginBottom=0;whiteSpace=wrap;html=1;" parent="1" vertex="1">
          <mxGeometry x="1320" y="770" width="140" height="52" as="geometry" />
        </mxCell>
        <mxCell id="Pqs-TYic2R4L-rjVyj2_-199" value="+&amp;nbsp;Draw(wxDC&amp;amp; dc)" style="text;strokeColor=none;fillColor=none;align=left;verticalAlign=top;spacingLeft=4;spacingRight=4;overflow=hidden;rotatable=0;points=[[0,0.5],[1,0.5]];portConstraint=eastwest;whiteSpace=wrap;html=1;" parent="Pqs-TYic2R4L-rjVyj2_-198" vertex="1">
          <mxGeometry y="26" width="140" height="26" as="geometry" />
        </mxCell>
        <mxCell id="Pqs-TYic2R4L-rjVyj2_-200" value="wxViewTriangle&amp;nbsp;" style="swimlane;fontStyle=0;childLayout=stackLayout;horizontal=1;startSize=26;fillColor=none;horizontalStack=0;resizeParent=1;resizeParentMax=0;resizeLast=0;collapsible=1;marginBottom=0;whiteSpace=wrap;html=1;" parent="1" vertex="1">
          <mxGeometry x="1320" y="905" width="140" height="52" as="geometry" />
        </mxCell>
        <mxCell id="Pqs-TYic2R4L-rjVyj2_-201" value="+&amp;nbsp;Draw(wxDC&amp;amp; dc)" style="text;strokeColor=none;fillColor=none;align=left;verticalAlign=top;spacingLeft=4;spacingRight=4;overflow=hidden;rotatable=0;points=[[0,0.5],[1,0.5]];portConstraint=eastwest;whiteSpace=wrap;html=1;" parent="Pqs-TYic2R4L-rjVyj2_-200" vertex="1">
          <mxGeometry y="26" width="140" height="26" as="geometry" />
        </mxCell>
        <mxCell id="Pqs-TYic2R4L-rjVyj2_-202" value="wxViewImage&amp;nbsp;" style="swimlane;fontStyle=0;childLayout=stackLayout;horizontal=1;startSize=26;fillColor=none;horizontalStack=0;resizeParent=1;resizeParentMax=0;resizeLast=0;collapsible=1;marginBottom=0;whiteSpace=wrap;html=1;" parent="1" vertex="1">
          <mxGeometry x="1210" y="1070" width="140" height="78" as="geometry" />
        </mxCell>
        <mxCell id="Pqs-TYic2R4L-rjVyj2_-203" value="+&amp;nbsp;Draw(wxDC&amp;amp; dc)" style="text;strokeColor=none;fillColor=none;align=left;verticalAlign=top;spacingLeft=4;spacingRight=4;overflow=hidden;rotatable=0;points=[[0,0.5],[1,0.5]];portConstraint=eastwest;whiteSpace=wrap;html=1;" parent="Pqs-TYic2R4L-rjVyj2_-202" vertex="1">
          <mxGeometry y="26" width="140" height="26" as="geometry" />
        </mxCell>
        <mxCell id="Pqs-TYic2R4L-rjVyj2_-204" value="- m_img: wxBitmap" style="text;strokeColor=none;fillColor=none;align=left;verticalAlign=top;spacingLeft=4;spacingRight=4;overflow=hidden;rotatable=0;points=[[0,0.5],[1,0.5]];portConstraint=eastwest;whiteSpace=wrap;html=1;" parent="Pqs-TYic2R4L-rjVyj2_-202" vertex="1">
          <mxGeometry y="52" width="140" height="26" as="geometry" />
        </mxCell>
        <mxCell id="Pqs-TYic2R4L-rjVyj2_-205" value="Extends" style="endArrow=block;endSize=16;endFill=0;html=1;rounded=0;exitX=0.5;exitY=0;exitDx=0;exitDy=0;" parent="1" source="Pqs-TYic2R4L-rjVyj2_-202" target="Pqs-TYic2R4L-rjVyj2_-189" edge="1">
          <mxGeometry width="160" relative="1" as="geometry">
            <mxPoint x="960" y="810" as="sourcePoint" />
            <mxPoint x="1120" y="810" as="targetPoint" />
          </mxGeometry>
        </mxCell>
        <mxCell id="Pqs-TYic2R4L-rjVyj2_-227" value="Extends" style="endArrow=block;endSize=16;endFill=0;html=1;rounded=0;exitX=0.91;exitY=-0.063;exitDx=0;exitDy=0;entryX=1.002;entryY=-0.06;entryDx=0;entryDy=0;entryPerimeter=0;exitPerimeter=0;" parent="1" source="Pqs-TYic2R4L-rjVyj2_-221" target="Pqs-TYic2R4L-rjVyj2_-212" edge="1">
          <mxGeometry width="160" relative="1" as="geometry">
            <mxPoint x="1290" y="1080" as="sourcePoint" />
            <mxPoint x="1073" y="980" as="targetPoint" />
          </mxGeometry>
        </mxCell>
        <mxCell id="Pqs-TYic2R4L-rjVyj2_-228" value="Extends" style="endArrow=block;endSize=16;endFill=0;html=1;rounded=0;exitX=0.5;exitY=0;exitDx=0;exitDy=0;entryX=0.976;entryY=1.038;entryDx=0;entryDy=0;entryPerimeter=0;" parent="1" source="Pqs-TYic2R4L-rjVyj2_-217" target="Pqs-TYic2R4L-rjVyj2_-216" edge="1">
          <mxGeometry width="160" relative="1" as="geometry">
            <mxPoint x="1239" y="1377" as="sourcePoint" />
            <mxPoint x="971" y="1086" as="targetPoint" />
          </mxGeometry>
        </mxCell>
        <mxCell id="Pqs-TYic2R4L-rjVyj2_-229" value="Extends" style="endArrow=block;endSize=16;endFill=0;html=1;rounded=0;entryX=0.446;entryY=1.082;entryDx=0;entryDy=0;entryPerimeter=0;" parent="1" source="Pqs-TYic2R4L-rjVyj2_-225" target="Pqs-TYic2R4L-rjVyj2_-216" edge="1">
          <mxGeometry width="160" relative="1" as="geometry">
            <mxPoint x="1035" y="1290" as="sourcePoint" />
            <mxPoint x="947" y="1169" as="targetPoint" />
          </mxGeometry>
        </mxCell>
        <mxCell id="Pqs-TYic2R4L-rjVyj2_-230" value="Extends" style="endArrow=block;endSize=16;endFill=0;html=1;rounded=0;entryX=0.741;entryY=0.951;entryDx=0;entryDy=0;entryPerimeter=0;exitX=0.802;exitY=-0.027;exitDx=0;exitDy=0;exitPerimeter=0;" parent="1" source="Pqs-TYic2R4L-rjVyj2_-223" target="Pqs-TYic2R4L-rjVyj2_-216" edge="1">
          <mxGeometry width="160" relative="1" as="geometry">
            <mxPoint x="920" y="1390" as="sourcePoint" />
            <mxPoint x="798" y="1220" as="targetPoint" />
          </mxGeometry>
        </mxCell>
        <mxCell id="Pqs-TYic2R4L-rjVyj2_-206" value="Extends" style="endArrow=block;endSize=16;endFill=0;html=1;rounded=0;exitX=0;exitY=0.25;exitDx=0;exitDy=0;entryX=0.999;entryY=-0.17;entryDx=0;entryDy=0;entryPerimeter=0;" parent="1" source="Pqs-TYic2R4L-rjVyj2_-194" target="Pqs-TYic2R4L-rjVyj2_-185" edge="1">
          <mxGeometry width="160" relative="1" as="geometry">
            <mxPoint x="1290" y="1080" as="sourcePoint" />
            <mxPoint x="1073" y="980" as="targetPoint" />
          </mxGeometry>
        </mxCell>
        <mxCell id="Pqs-TYic2R4L-rjVyj2_-207" value="Extends" style="endArrow=block;endSize=16;endFill=0;html=1;rounded=0;exitX=0;exitY=0.5;exitDx=0;exitDy=0;entryX=1.019;entryY=0.082;entryDx=0;entryDy=0;entryPerimeter=0;" parent="1" source="Pqs-TYic2R4L-rjVyj2_-199" target="Pqs-TYic2R4L-rjVyj2_-187" edge="1">
          <mxGeometry width="160" relative="1" as="geometry">
            <mxPoint x="1300" y="1090" as="sourcePoint" />
            <mxPoint x="1083" y="990" as="targetPoint" />
          </mxGeometry>
        </mxCell>
        <mxCell id="Pqs-TYic2R4L-rjVyj2_-208" value="Extends" style="endArrow=block;endSize=16;endFill=0;html=1;rounded=0;exitX=0;exitY=0.5;exitDx=0;exitDy=0;entryX=1;entryY=0.5;entryDx=0;entryDy=0;" parent="1" source="Pqs-TYic2R4L-rjVyj2_-201" target="Pqs-TYic2R4L-rjVyj2_-191" edge="1">
          <mxGeometry width="160" relative="1" as="geometry">
            <mxPoint x="1310" y="1100" as="sourcePoint" />
            <mxPoint x="1093" y="1000" as="targetPoint" />
          </mxGeometry>
        </mxCell>
        <mxCell id="Pqs-TYic2R4L-rjVyj2_-209" value="ResizingMarker" style="swimlane;fontStyle=0;childLayout=stackLayout;horizontal=1;startSize=26;fillColor=none;horizontalStack=0;resizeParent=1;resizeParentMax=0;resizeLast=0;collapsible=1;marginBottom=0;whiteSpace=wrap;html=1;" parent="1" vertex="1">
          <mxGeometry x="650" y="1000" width="310" height="208" as="geometry" />
        </mxCell>
        <mxCell id="Pqs-TYic2R4L-rjVyj2_-210" value="+&amp;nbsp;OnPaint(wxPaintEvent&amp;amp; event)" style="text;strokeColor=none;fillColor=none;align=left;verticalAlign=top;spacingLeft=4;spacingRight=4;overflow=hidden;rotatable=0;points=[[0,0.5],[1,0.5]];portConstraint=eastwest;whiteSpace=wrap;html=1;" parent="Pqs-TYic2R4L-rjVyj2_-209" vertex="1">
          <mxGeometry y="26" width="310" height="26" as="geometry" />
        </mxCell>
        <mxCell id="Pqs-TYic2R4L-rjVyj2_-211" value="+&amp;nbsp;ResizeParent(wxMouseEvent&amp;amp; evt)" style="text;strokeColor=none;fillColor=none;align=left;verticalAlign=top;spacingLeft=4;spacingRight=4;overflow=hidden;rotatable=0;points=[[0,0.5],[1,0.5]];portConstraint=eastwest;whiteSpace=wrap;html=1;" parent="Pqs-TYic2R4L-rjVyj2_-209" vertex="1">
          <mxGeometry y="52" width="310" height="26" as="geometry" />
        </mxCell>
        <mxCell id="Pqs-TYic2R4L-rjVyj2_-212" value="+ OnDragging(const wxPoint&amp;amp; pos)" style="text;strokeColor=none;fillColor=none;align=left;verticalAlign=top;spacingLeft=4;spacingRight=4;overflow=hidden;rotatable=0;points=[[0,0.5],[1,0.5]];portConstraint=eastwest;whiteSpace=wrap;html=1;" parent="Pqs-TYic2R4L-rjVyj2_-209" vertex="1">
          <mxGeometry y="78" width="310" height="26" as="geometry" />
        </mxCell>
        <mxCell id="Pqs-TYic2R4L-rjVyj2_-213" value="+ SetResizePos(const wxPoint&amp;amp; p)" style="text;strokeColor=none;fillColor=none;align=left;verticalAlign=top;spacingLeft=4;spacingRight=4;overflow=hidden;rotatable=0;points=[[0,0.5],[1,0.5]];portConstraint=eastwest;whiteSpace=wrap;html=1;" parent="Pqs-TYic2R4L-rjVyj2_-209" vertex="1">
          <mxGeometry y="104" width="310" height="26" as="geometry" />
        </mxCell>
        <mxCell id="Pqs-TYic2R4L-rjVyj2_-214" value="+&amp;nbsp;GetResizePos(): wxPoint" style="text;strokeColor=none;fillColor=none;align=left;verticalAlign=top;spacingLeft=4;spacingRight=4;overflow=hidden;rotatable=0;points=[[0,0.5],[1,0.5]];portConstraint=eastwest;whiteSpace=wrap;html=1;" parent="Pqs-TYic2R4L-rjVyj2_-209" vertex="1">
          <mxGeometry y="130" width="310" height="26" as="geometry" />
        </mxCell>
        <mxCell id="Pqs-TYic2R4L-rjVyj2_-215" value="-m_setFrameCallback:&amp;nbsp; std::function&amp;lt;void(wxRect)&amp;gt;" style="text;strokeColor=none;fillColor=none;align=left;verticalAlign=top;spacingLeft=4;spacingRight=4;overflow=hidden;rotatable=0;points=[[0,0.5],[1,0.5]];portConstraint=eastwest;whiteSpace=wrap;html=1;" parent="Pqs-TYic2R4L-rjVyj2_-209" vertex="1">
          <mxGeometry y="156" width="310" height="26" as="geometry" />
        </mxCell>
        <mxCell id="Pqs-TYic2R4L-rjVyj2_-216" value="- m_startPoint: wxPoint" style="text;strokeColor=none;fillColor=none;align=left;verticalAlign=top;spacingLeft=4;spacingRight=4;overflow=hidden;rotatable=0;points=[[0,0.5],[1,0.5]];portConstraint=eastwest;whiteSpace=wrap;html=1;" parent="Pqs-TYic2R4L-rjVyj2_-209" vertex="1">
          <mxGeometry y="182" width="310" height="26" as="geometry" />
        </mxCell>
        <mxCell id="Pqs-TYic2R4L-rjVyj2_-217" value="LeftTopMarker&amp;nbsp;" style="swimlane;fontStyle=0;childLayout=stackLayout;horizontal=1;startSize=26;fillColor=none;horizontalStack=0;resizeParent=1;resizeParentMax=0;resizeLast=0;collapsible=1;marginBottom=0;whiteSpace=wrap;html=1;" parent="1" vertex="1">
          <mxGeometry x="910" y="1280" width="230" height="52" as="geometry" />
        </mxCell>
        <mxCell id="Pqs-TYic2R4L-rjVyj2_-218" value="+ OnDragging(const wxPoint&amp;amp; pos)" style="text;strokeColor=none;fillColor=none;align=left;verticalAlign=top;spacingLeft=4;spacingRight=4;overflow=hidden;rotatable=0;points=[[0,0.5],[1,0.5]];portConstraint=eastwest;whiteSpace=wrap;html=1;" parent="Pqs-TYic2R4L-rjVyj2_-217" vertex="1">
          <mxGeometry y="26" width="230" height="26" as="geometry" />
        </mxCell>
        <mxCell id="Pqs-TYic2R4L-rjVyj2_-221" value="RightTopMarker&amp;nbsp;" style="swimlane;fontStyle=0;childLayout=stackLayout;horizontal=1;startSize=26;fillColor=none;horizontalStack=0;resizeParent=1;resizeParentMax=0;resizeLast=0;collapsible=1;marginBottom=0;whiteSpace=wrap;html=1;" parent="1" vertex="1">
          <mxGeometry x="1020" y="1370" width="230" height="52" as="geometry" />
        </mxCell>
        <mxCell id="Pqs-TYic2R4L-rjVyj2_-222" value="+ OnDragging(const wxPoint&amp;amp; pos)" style="text;strokeColor=none;fillColor=none;align=left;verticalAlign=top;spacingLeft=4;spacingRight=4;overflow=hidden;rotatable=0;points=[[0,0.5],[1,0.5]];portConstraint=eastwest;whiteSpace=wrap;html=1;" parent="Pqs-TYic2R4L-rjVyj2_-221" vertex="1">
          <mxGeometry y="26" width="230" height="26" as="geometry" />
        </mxCell>
        <mxCell id="Pqs-TYic2R4L-rjVyj2_-223" value="RightBottomMarker&amp;nbsp;" style="swimlane;fontStyle=0;childLayout=stackLayout;horizontal=1;startSize=26;fillColor=none;horizontalStack=0;resizeParent=1;resizeParentMax=0;resizeLast=0;collapsible=1;marginBottom=0;whiteSpace=wrap;html=1;" parent="1" vertex="1">
          <mxGeometry x="710" y="1399" width="230" height="52" as="geometry" />
        </mxCell>
        <mxCell id="Pqs-TYic2R4L-rjVyj2_-224" value="+ OnDragging(const wxPoint&amp;amp; pos)" style="text;strokeColor=none;fillColor=none;align=left;verticalAlign=top;spacingLeft=4;spacingRight=4;overflow=hidden;rotatable=0;points=[[0,0.5],[1,0.5]];portConstraint=eastwest;whiteSpace=wrap;html=1;" parent="Pqs-TYic2R4L-rjVyj2_-223" vertex="1">
          <mxGeometry y="26" width="230" height="26" as="geometry" />
        </mxCell>
        <mxCell id="Pqs-TYic2R4L-rjVyj2_-225" value="LeftBottomMarker&amp;nbsp;" style="swimlane;fontStyle=0;childLayout=stackLayout;horizontal=1;startSize=26;fillColor=none;horizontalStack=0;resizeParent=1;resizeParentMax=0;resizeLast=0;collapsible=1;marginBottom=0;whiteSpace=wrap;html=1;" parent="1" vertex="1">
          <mxGeometry x="650" y="1270" width="230" height="52" as="geometry" />
        </mxCell>
        <mxCell id="Pqs-TYic2R4L-rjVyj2_-226" value="+ OnDragging(const wxPoint&amp;amp; pos)" style="text;strokeColor=none;fillColor=none;align=left;verticalAlign=top;spacingLeft=4;spacingRight=4;overflow=hidden;rotatable=0;points=[[0,0.5],[1,0.5]];portConstraint=eastwest;whiteSpace=wrap;html=1;" parent="Pqs-TYic2R4L-rjVyj2_-225" vertex="1">
          <mxGeometry y="26" width="230" height="26" as="geometry" />
        </mxCell>
        <mxCell id="Pqs-TYic2R4L-rjVyj2_-231" value="" style="endArrow=diamondThin;endFill=1;endSize=24;html=1;rounded=0;exitX=0.309;exitY=-0.006;exitDx=0;exitDy=0;exitPerimeter=0;entryX=0;entryY=0.5;entryDx=0;entryDy=0;" parent="1" source="Pqs-TYic2R4L-rjVyj2_-209" target="Pqs-TYic2R4L-rjVyj2_-186" edge="1">
          <mxGeometry width="160" relative="1" as="geometry">
            <mxPoint x="680" y="800" as="sourcePoint" />
            <mxPoint x="840" y="800" as="targetPoint" />
          </mxGeometry>
        </mxCell>
        <mxCell id="Pqs-TYic2R4L-rjVyj2_-232" value="" style="endArrow=diamondThin;endFill=1;endSize=24;html=1;rounded=0;entryX=0.972;entryY=-0.209;entryDx=0;entryDy=0;entryPerimeter=0;exitX=0.25;exitY=0;exitDx=0;exitDy=0;" parent="1" source="Pqs-TYic2R4L-rjVyj2_-209" target="Pqs-TYic2R4L-rjVyj2_-147" edge="1">
          <mxGeometry width="160" relative="1" as="geometry">
            <mxPoint x="720" y="990" as="sourcePoint" />
            <mxPoint x="880" y="811" as="targetPoint" />
          </mxGeometry>
        </mxCell>
        <mxCell id="Pqs-TYic2R4L-rjVyj2_-237" value="&lt;p style=&quot;margin:0px;margin-top:4px;text-align:center;&quot;&gt;&lt;b&gt;CMainFrameController&amp;nbsp;&lt;/b&gt;&lt;br&gt;&lt;/p&gt;&lt;hr size=&quot;1&quot;&gt;&lt;p style=&quot;border-color: var(--border-color); margin: 0px 0px 0px 4px;&quot;&gt;+ DeleteItem(string idx)&lt;br style=&quot;border-color: var(--border-color);&quot;&gt;+ Undo()&lt;br style=&quot;border-color: var(--border-color);&quot;&gt;+&amp;nbsp;Redo ()&lt;br style=&quot;border-color: var(--border-color);&quot;&gt;&lt;/p&gt;&lt;p style=&quot;border-color: var(--border-color); margin: 0px 0px 0px 4px;&quot;&gt;+&amp;nbsp;AddShape(IShapePtr shape)&lt;/p&gt;&lt;p style=&quot;border-color: var(--border-color); margin: 0px 0px 0px 4px;&quot;&gt;+&amp;nbsp;AddImage(IImagePtr img)&lt;/p&gt;" style="verticalAlign=top;align=left;overflow=fill;fontSize=12;fontFamily=Helvetica;html=1;whiteSpace=wrap;" parent="1" vertex="1">
          <mxGeometry x="-155" y="170" width="225" height="120" as="geometry" />
        </mxCell>
        <mxCell id="Pqs-TYic2R4L-rjVyj2_-238" value="&lt;p style=&quot;margin:0px;margin-top:4px;text-align:center;&quot;&gt;&lt;i&gt;&amp;lt;&amp;lt;Interface&amp;gt;&amp;gt;&lt;/i&gt;&lt;br&gt;&lt;b&gt;IMainFrameController&lt;/b&gt;&lt;br&gt;&lt;/p&gt;&lt;hr size=&quot;1&quot;&gt;&lt;p style=&quot;border-color: var(--border-color); margin: 0px 0px 0px 4px;&quot;&gt;+ DeleteItem(string idx)&lt;br style=&quot;border-color: var(--border-color);&quot;&gt;+ Undo()&lt;br style=&quot;border-color: var(--border-color);&quot;&gt;+&amp;nbsp;Redo ()&lt;br style=&quot;border-color: var(--border-color);&quot;&gt;&lt;/p&gt;&lt;p style=&quot;border-color: var(--border-color); margin: 0px 0px 0px 4px;&quot;&gt;+&amp;nbsp;AddShape(IShapePtr shape)&lt;/p&gt;&lt;p style=&quot;border-color: var(--border-color); margin: 0px 0px 0px 4px;&quot;&gt;+&amp;nbsp;AddImage(IImagePtr img)&lt;/p&gt;" style="verticalAlign=top;align=left;overflow=fill;fontSize=12;fontFamily=Helvetica;html=1;whiteSpace=wrap;" parent="1" vertex="1">
          <mxGeometry x="-370" y="270" width="190" height="140" as="geometry" />
        </mxCell>
        <mxCell id="Pqs-TYic2R4L-rjVyj2_-240" value="" style="endArrow=block;dashed=1;endFill=0;endSize=12;html=1;rounded=0;entryX=1.013;entryY=0.34;entryDx=0;entryDy=0;entryPerimeter=0;exitX=0.25;exitY=1;exitDx=0;exitDy=0;" parent="1" source="Pqs-TYic2R4L-rjVyj2_-237" target="Pqs-TYic2R4L-rjVyj2_-238" edge="1">
          <mxGeometry width="160" relative="1" as="geometry">
            <mxPoint x="-70" y="550" as="sourcePoint" />
            <mxPoint x="90" y="550" as="targetPoint" />
          </mxGeometry>
        </mxCell>
        <mxCell id="Pqs-TYic2R4L-rjVyj2_-241" value="&lt;p style=&quot;margin:0px;margin-top:4px;text-align:center;&quot;&gt;&lt;b&gt;CCanvasController&lt;/b&gt;&lt;br&gt;&lt;/p&gt;&lt;hr size=&quot;1&quot;&gt;&lt;p style=&quot;border-color: var(--border-color); margin: 0px 0px 0px 4px;&quot;&gt;+ DeleteItem(string idx)&lt;br style=&quot;border-color: var(--border-color);&quot;&gt;+ Undo()&lt;br style=&quot;border-color: var(--border-color);&quot;&gt;+&amp;nbsp;Redo ()&lt;br style=&quot;border-color: var(--border-color);&quot;&gt;&lt;/p&gt;&lt;p style=&quot;border-color: var(--border-color); margin: 0px 0px 0px 4px;&quot;&gt;+ SetSize(Size size)&lt;br&gt;&lt;/p&gt;&lt;p style=&quot;border-color: var(--border-color); margin: 0px 0px 0px 4px;&quot;&gt;+&amp;nbsp;AddImage(IImagePtr img)&lt;/p&gt;" style="verticalAlign=top;align=left;overflow=fill;fontSize=12;fontFamily=Helvetica;html=1;whiteSpace=wrap;" parent="1" vertex="1">
          <mxGeometry x="705" y="-50" width="225" height="120" as="geometry" />
        </mxCell>
        <mxCell id="Pqs-TYic2R4L-rjVyj2_-242" value="&lt;p style=&quot;margin:0px;margin-top:4px;text-align:center;&quot;&gt;&lt;i&gt;&amp;lt;&amp;lt;Interface&amp;gt;&amp;gt;&lt;/i&gt;&lt;br&gt;&lt;/p&gt;&lt;div style=&quot;text-align: center;&quot;&gt;&lt;b&gt;ICanvasController&lt;/b&gt;&lt;/div&gt;&lt;p style=&quot;border-color: var(--border-color); margin: 0px 0px 0px 4px;&quot;&gt;+ DeleteItem(string idx)&lt;br style=&quot;border-color: var(--border-color);&quot;&gt;+ Undo()&lt;br style=&quot;border-color: var(--border-color);&quot;&gt;+&amp;nbsp;Redo ()&lt;span style=&quot;background-color: initial;&quot;&gt;&amp;nbsp;&lt;/span&gt;&lt;/p&gt;+ SetSize(Size size)&lt;p style=&quot;border-color: var(--border-color); margin: 0px 0px 0px 4px;&quot;&gt;+&amp;nbsp;AddImage(IImagePtr img)&lt;/p&gt;" style="verticalAlign=top;align=left;overflow=fill;fontSize=12;fontFamily=Helvetica;html=1;whiteSpace=wrap;" parent="1" vertex="1">
          <mxGeometry x="490" y="50" width="190" height="140" as="geometry" />
        </mxCell>
        <mxCell id="Pqs-TYic2R4L-rjVyj2_-243" value="" style="endArrow=block;dashed=1;endFill=0;endSize=12;html=1;rounded=0;entryX=1.013;entryY=0.34;entryDx=0;entryDy=0;entryPerimeter=0;exitX=0.25;exitY=1;exitDx=0;exitDy=0;" parent="1" source="Pqs-TYic2R4L-rjVyj2_-241" target="Pqs-TYic2R4L-rjVyj2_-242" edge="1">
          <mxGeometry width="160" relative="1" as="geometry">
            <mxPoint x="790" y="330" as="sourcePoint" />
            <mxPoint x="950" y="330" as="targetPoint" />
          </mxGeometry>
        </mxCell>
        <mxCell id="Pqs-TYic2R4L-rjVyj2_-244" value="" style="endArrow=diamondThin;endFill=1;endSize=24;html=1;rounded=0;entryX=0.5;entryY=0;entryDx=0;entryDy=0;exitX=0;exitY=0.5;exitDx=0;exitDy=0;" parent="1" source="Pqs-TYic2R4L-rjVyj2_-242" target="Pqs-TYic2R4L-rjVyj2_-126" edge="1">
          <mxGeometry width="160" relative="1" as="geometry">
            <mxPoint x="480" y="130" as="sourcePoint" />
            <mxPoint x="370" y="290" as="targetPoint" />
          </mxGeometry>
        </mxCell>
        <mxCell id="Pqs-TYic2R4L-rjVyj2_-245" value="&lt;p style=&quot;margin:0px;margin-top:4px;text-align:center;&quot;&gt;&lt;i&gt;&amp;lt;&amp;lt;Interface&amp;gt;&amp;gt;&lt;/i&gt;&lt;br&gt;&lt;b&gt;IViewItemController&lt;/b&gt;&lt;br&gt;&lt;/p&gt;&lt;hr size=&quot;1&quot;&gt;&lt;p style=&quot;margin:0px;margin-left:4px;&quot;&gt;+SetPosition(Point pos)&lt;/p&gt;&lt;p style=&quot;margin:0px;margin-left:4px;&quot;&gt;+SetFrame(const Rect&amp;amp; frame)&amp;nbsp;&lt;span style=&quot;&quot;&gt;&lt;/span&gt;&lt;/p&gt;" style="verticalAlign=top;align=left;overflow=fill;fontSize=12;fontFamily=Helvetica;html=1;whiteSpace=wrap;" parent="1" vertex="1">
          <mxGeometry x="1030" y="360" width="190" height="90" as="geometry" />
        </mxCell>
        <mxCell id="Pqs-TYic2R4L-rjVyj2_-246" value="&lt;p style=&quot;margin:0px;margin-top:4px;text-align:center;&quot;&gt;&lt;b&gt;CViewItemController&lt;/b&gt;&lt;br&gt;&lt;/p&gt;&lt;hr size=&quot;1&quot;&gt;&lt;p style=&quot;margin:0px;margin-left:4px;&quot;&gt;+SetPosition(Point pos)&lt;/p&gt;&lt;p style=&quot;margin:0px;margin-left:4px;&quot;&gt;+SetFrame(const Rect&amp;amp; frame)&amp;nbsp;&lt;span style=&quot;&quot;&gt;&lt;/span&gt;&lt;/p&gt;" style="verticalAlign=top;align=left;overflow=fill;fontSize=12;fontFamily=Helvetica;html=1;whiteSpace=wrap;" parent="1" vertex="1">
          <mxGeometry x="1330" y="210" width="190" height="90" as="geometry" />
        </mxCell>
        <mxCell id="Pqs-TYic2R4L-rjVyj2_-247" value="" style="endArrow=diamondThin;endFill=1;endSize=24;html=1;rounded=0;entryX=0.75;entryY=0;entryDx=0;entryDy=0;" parent="1" source="Pqs-TYic2R4L-rjVyj2_-245" target="Pqs-TYic2R4L-rjVyj2_-178" edge="1">
          <mxGeometry width="160" relative="1" as="geometry">
            <mxPoint x="1080" y="510" as="sourcePoint" />
            <mxPoint x="1240" y="510" as="targetPoint" />
          </mxGeometry>
        </mxCell>
        <mxCell id="Pqs-TYic2R4L-rjVyj2_-248" value="" style="endArrow=block;dashed=1;endFill=0;endSize=12;html=1;rounded=0;entryX=1;entryY=0.5;entryDx=0;entryDy=0;exitX=0;exitY=0.75;exitDx=0;exitDy=0;" parent="1" source="Pqs-TYic2R4L-rjVyj2_-246" target="Pqs-TYic2R4L-rjVyj2_-245" edge="1">
          <mxGeometry width="160" relative="1" as="geometry">
            <mxPoint x="1080" y="510" as="sourcePoint" />
            <mxPoint x="1240" y="510" as="targetPoint" />
          </mxGeometry>
        </mxCell>
        <mxCell id="Bk_4x616UuO5mtPBodz--2" value="MVM Повторить" style="text;html=1;strokeColor=#b85450;fillColor=#f8cecc;align=center;verticalAlign=middle;whiteSpace=wrap;rounded=0;" vertex="1" parent="1">
          <mxGeometry x="-1450" y="590" width="130" height="180" as="geometry" />
        </mxCell>
        <mxCell id="Bk_4x616UuO5mtPBodz--4" value="Разбить на длогические урокни" style="text;html=1;strokeColor=#b85450;fillColor=#f8cecc;align=center;verticalAlign=middle;whiteSpace=wrap;rounded=0;" vertex="1" parent="1">
          <mxGeometry x="1280" y="1690" width="120" height="80" as="geometry" />
        </mxCell>
        <mxCell id="Bk_4x616UuO5mtPBodz--5" value="And&amp;nbsp; -ринж" style="text;html=1;strokeColor=#b85450;fillColor=#f8cecc;align=center;verticalAlign=middle;whiteSpace=wrap;rounded=0;" vertex="1" parent="1">
          <mxGeometry x="-550" y="2030" width="70" height="40" as="geometry" />
        </mxCell>
        <mxCell id="Bk_4x616UuO5mtPBodz--6" value="История к конроллеру" style="text;html=1;strokeColor=#b85450;fillColor=#f8cecc;align=center;verticalAlign=middle;whiteSpace=wrap;rounded=0;" vertex="1" parent="1">
          <mxGeometry x="-200" y="1810" width="100" height="50" as="geometry" />
        </mxCell>
        <mxCell id="Bk_4x616UuO5mtPBodz--7" value="MainFrame and Canvas COntroller лучше реализовать сместе или одинобщи йинтерфейс" style="text;html=1;strokeColor=#b85450;fillColor=#f8cecc;align=center;verticalAlign=middle;whiteSpace=wrap;rounded=0;" vertex="1" parent="1">
          <mxGeometry x="130" y="-20" width="145" height="140" as="geometry" />
        </mxCell>
      </root>
    </mxGraphModel>
  </diagram>
</mxfile>
